<svg xmlns="http://www.w3.org/2000/svg" width="18" height="18" viewBox="0 0 18 18"><defs><style>.a{fill:#1a204f;}</style></defs><circle class="a" cx="0.951" cy="0.951" r="0.951" transform="translate(8.049 12.317)"/><path class="a" d="M9,0a9,9,0,1,0,9,9A9,9,0,0,0,9,0ZM9,16.594A7.594,7.594,0,1,1,16.594,9,7.59,7.59,0,0,1,9,16.594Z"/><path class="a" d="M179.044,128.5A3.047,3.047,0,0,0,176,131.544a.761.761,0,0,0,1.522,0,1.522,1.522,0,1,1,1.522,1.522.761.761,0,0,0-.761.761v1.488a.761.761,0,0,0,1.522,0v-.823a3.044,3.044,0,0,0-.761-5.991Z" transform="translate(-170.044 -124.24)"/></svg>