<svg width="62" height="27" viewBox="0 0 62 27" fill="none" xmlns="http://www.w3.org/2000/svg">
<g clip-path="url(#clip0_2509_40884)">
<path fill-rule="evenodd" clip-rule="evenodd" d="M19.5692 1.17221C6.04887 1.90151 6.49039 1.87774 5.33186 1.93876C4.99017 1.95676 4.63294 1.97849 4.53802 1.98708C4.44311 1.99568 4.15577 2.01246 3.8995 2.02436C3.64323 2.0363 3.37919 2.05004 3.31275 2.05492C3.24631 2.05981 2.94344 2.07433 2.63971 2.08719C2.33598 2.10007 2.02535 2.1167 1.94942 2.12414C1.87349 2.13158 1.57838 2.14552 1.29364 2.15509C0.840666 2.17034 0.437085 2.2066 0.180537 2.25513C0.0974257 2.27086 0.078132 2.3571 0.135254 2.45756C0.153063 2.48887 0.208667 2.62514 0.258817 2.76039C0.355493 3.02109 0.402536 3.1347 0.452065 3.22716C0.468839 3.25847 0.482541 3.30664 0.482541 3.33418C0.482541 3.36172 0.496969 3.40989 0.514606 3.4412C0.532208 3.47251 0.603274 3.64566 0.672511 3.826C0.741747 4.00633 0.812019 4.18339 0.828724 4.21945C0.845395 4.25552 0.904726 4.41044 0.960571 4.56373C1.05921 4.83449 1.14981 5.06912 1.20749 5.20309C1.22302 5.23916 1.29264 5.41621 1.36218 5.59655C1.49638 5.9444 1.5419 6.05351 1.59105 6.14529C1.60783 6.1766 1.62153 6.22477 1.62153 6.25231C1.62153 6.27985 1.63609 6.32802 1.6539 6.35933C1.67171 6.39064 1.72732 6.52691 1.77747 6.66216C1.87262 6.91872 1.89885 6.98499 1.95929 7.12119C1.97931 7.16627 2.03705 7.31382 2.08765 7.44907C2.20928 7.77423 2.31193 8.04037 2.34692 8.12122C2.36256 8.15729 2.41664 8.29746 2.46714 8.43271C2.55505 8.66809 2.58211 8.73531 2.65524 8.89994C2.67326 8.94053 2.71199 9.04397 2.74126 9.12985C2.7931 9.28188 2.97485 9.7518 3.03915 9.89997C3.10794 10.0586 3.15264 10.1731 3.35572 10.7115C3.37615 10.7656 3.40587 10.8239 3.42182 10.841C3.43776 10.8581 3.45081 10.8989 3.45081 10.9316C3.45081 10.9643 3.46538 11.0167 3.48318 11.048C3.50099 11.0793 3.5566 11.2156 3.60675 11.3508C3.70525 11.6165 3.73204 11.6837 3.78961 11.8099C3.81018 11.855 3.85097 11.9621 3.88024 12.048C3.9335 12.2041 4.12022 12.6862 4.17538 12.8099C4.19143 12.846 4.24593 12.9861 4.29642 13.1214C4.39627 13.3888 4.42309 13.4559 4.4799 13.5804C4.50047 13.6255 4.54127 13.7327 4.57054 13.8185C4.64219 14.0287 4.8382 14.5276 4.92787 14.728C4.94803 14.7731 4.99572 14.8996 5.03386 15.0092C5.10645 15.2176 5.19249 15.4415 5.25341 15.5805C5.29807 15.6824 5.31778 15.7325 5.43413 16.0395C5.48539 16.1748 5.54368 16.3223 5.56363 16.3674C5.63093 16.5193 5.65482 16.5795 5.76506 16.8756C5.82549 17.0379 5.88275 17.2041 5.89228 17.245C5.90181 17.2858 5.92327 17.3272 5.93998 17.3371C5.95744 17.3473 5.97039 15.3734 5.97039 12.6982V8.04155L6.0449 8.00368C6.16208 7.9441 11.3679 7.98643 11.9414 8.05165C13.6943 8.2509 14.9411 8.81489 15.562 9.68931C15.7159 9.90604 15.8926 10.2767 15.9399 10.482C15.9607 10.5721 15.9937 10.7151 16.0132 10.7998C16.0604 11.0042 16.0584 11.6087 16.0098 11.8571C15.879 12.5255 15.6364 12.9651 15.1251 13.4604C14.205 14.3517 12.5526 14.8255 10.3624 14.8262L9.93958 14.8264V16.2056C9.93958 17.0937 9.92685 17.6074 9.90386 17.6483C9.86921 17.7098 9.8115 17.7117 7.98829 17.7117C6.78397 17.7117 6.10845 17.7232 6.10845 17.7438C6.10845 17.7615 6.13326 17.839 6.16357 17.916C6.1939 17.993 6.24978 18.1371 6.28775 18.2363C6.32572 18.3355 6.36941 18.4462 6.38484 18.4822C6.4003 18.5183 6.46985 18.6953 6.5394 18.8757C6.60898 19.056 6.67946 19.2331 6.69606 19.2691C6.71266 19.3052 6.75021 19.405 6.77948 19.4908C6.853 19.7064 7.05211 20.2125 7.13733 20.4003C7.15776 20.4454 7.21454 20.5929 7.26345 20.7282C7.31236 20.8634 7.36603 21.0036 7.3827 21.0397C7.3994 21.0757 7.43171 21.1569 7.45452 21.22C7.47734 21.2831 7.50871 21.3643 7.52428 21.4004C7.53981 21.4364 7.59386 21.5766 7.64435 21.7118C7.7442 21.9793 7.77102 22.0464 7.82783 22.1709C7.8484 22.216 7.8892 22.3231 7.91847 22.409C7.97172 22.5651 8.15845 23.0472 8.2136 23.1709C8.22965 23.207 8.28415 23.3471 8.33465 23.4824C8.38514 23.6176 8.43923 23.7578 8.45486 23.7939C8.47046 23.8299 8.51447 23.9406 8.55264 24.0398C8.83266 24.7673 8.81213 24.7424 9.05414 24.6464C9.12227 24.6193 9.21736 24.5972 9.26544 24.5972C9.31352 24.5972 9.35283 24.5824 9.35283 24.5644C9.35283 24.5464 9.39073 24.5316 9.43708 24.5316C9.48344 24.5316 9.53093 24.5168 9.54266 24.4988C9.5544 24.4808 9.59437 24.466 9.63147 24.466C9.66857 24.466 9.7259 24.4526 9.75886 24.4363C9.85737 24.3873 10.1831 24.3021 10.2714 24.3021C10.3167 24.3021 10.3538 24.2873 10.3538 24.2693C10.3538 24.2513 10.4004 24.2365 10.4573 24.2365C10.5143 24.2365 10.5608 24.2218 10.5608 24.2037C10.5608 24.1857 10.6074 24.1709 10.6644 24.1709C10.7213 24.1709 10.7679 24.1579 10.7679 24.1418C10.7679 24.1259 10.8106 24.105 10.8629 24.0954C10.915 24.0858 11.0199 24.0607 11.0958 24.0396C11.1718 24.0186 11.2611 23.9995 11.2943 23.9972C11.3275 23.9948 11.3547 23.9814 11.3547 23.9672C11.3547 23.953 11.4013 23.9414 11.4582 23.9414C11.5152 23.9414 11.5618 23.9267 11.5618 23.9086C11.5618 23.8906 11.6084 23.8758 11.6653 23.8758C11.7223 23.8758 11.7689 23.8611 11.7689 23.8431C11.7689 23.825 11.8155 23.8103 11.8724 23.8103C11.9294 23.8103 11.976 23.7955 11.976 23.7775C11.976 23.7594 12.0216 23.7447 12.0775 23.7447C12.1333 23.7447 12.1873 23.7319 12.1975 23.7162C12.2077 23.7006 12.2934 23.678 12.3879 23.6661C12.4825 23.6542 12.5692 23.6301 12.5806 23.6126C12.592 23.5951 12.647 23.5807 12.7028 23.5807C12.7586 23.5807 12.8043 23.566 12.8043 23.548C12.8043 23.5299 12.8509 23.5152 12.9079 23.5152C12.9648 23.5152 13.0114 23.5004 13.0114 23.4824C13.0114 23.4644 13.058 23.4496 13.1149 23.4496C13.1719 23.4496 13.2185 23.4348 13.2185 23.4168C13.2185 23.3988 13.249 23.384 13.2863 23.384C13.3236 23.384 13.4207 23.364 13.502 23.3396C13.5834 23.3151 13.7198 23.2757 13.8052 23.2519C13.8907 23.2281 13.9753 23.1965 13.9933 23.1816C14.0114 23.1667 14.0696 23.1545 14.1228 23.1545C14.1759 23.1545 14.2194 23.1398 14.2194 23.1217C14.2194 23.1037 14.2573 23.0889 14.3037 23.0889C14.35 23.0889 14.3975 23.0742 14.4092 23.0561C14.421 23.0381 14.4559 23.0234 14.4869 23.0234C14.5533 23.0234 15.1072 22.867 15.194 22.8237C15.2269 22.8073 15.2852 22.7938 15.3234 22.7938C15.3616 22.7938 15.3929 22.7791 15.3929 22.7611C15.3929 22.743 15.432 22.7283 15.4797 22.7283C15.5274 22.7283 15.5934 22.7153 15.6264 22.6995C15.6593 22.6838 15.7795 22.6454 15.8934 22.6143C16.0073 22.5832 16.1274 22.5445 16.1604 22.5283C16.1933 22.512 16.2507 22.4987 16.2878 22.4987C16.3249 22.4987 16.3648 22.484 16.3766 22.466C16.3883 22.4479 16.4283 22.4332 16.4654 22.4332C16.5025 22.4332 16.5598 22.4197 16.5928 22.4033C16.6257 22.3869 16.7925 22.334 16.9633 22.2858C17.1342 22.2376 17.3283 22.1828 17.3948 22.1641C17.4612 22.1454 17.5425 22.1171 17.5755 22.1013C17.6085 22.0855 17.6592 22.0725 17.6881 22.0725C17.7171 22.0725 17.7678 22.059 17.8008 22.0425C17.8338 22.026 17.9772 21.9796 18.1196 21.9394C18.262 21.8993 18.5804 21.8039 18.8271 21.7275C19.0739 21.6511 19.4622 21.5337 19.69 21.4665C19.9178 21.3994 20.1352 21.3325 20.1732 21.318C20.2112 21.3034 20.382 21.2524 20.5529 21.2047C20.7237 21.157 20.8905 21.104 20.9234 21.087C20.9564 21.07 21.0071 21.0561 21.0361 21.0561C21.0651 21.0561 21.1158 21.0426 21.1487 21.0261C21.1817 21.0096 21.395 20.9421 21.6228 20.8761C21.8506 20.8101 22.0568 20.7501 22.0809 20.7429C22.1051 20.7356 22.1342 20.7066 22.1456 20.6783C22.164 20.6329 22.1047 20.3405 22.0194 20.056C22.0032 20.0019 21.9733 19.895 21.9531 19.8183C21.9328 19.7417 21.9005 19.6237 21.8813 19.556C21.5674 18.4489 21.5271 18.1101 21.6787 17.8528C21.7493 17.733 21.7522 17.7352 21.4675 17.6941C21.2649 17.6648 20.7231 17.5301 20.4039 17.4296C19.1258 17.027 18.1642 16.3741 17.53 15.4782C17.1593 14.9544 16.9744 14.5095 16.8029 13.728C16.7446 13.4621 16.7441 12.2789 16.8023 12.0394C16.9023 11.6272 16.9211 11.5565 16.9714 11.4C17.0441 11.174 17.2879 10.686 17.4463 10.4492C17.9704 9.666 18.6474 9.08994 19.5755 8.6374C19.7524 8.55117 19.9592 8.45697 20.0351 8.42809C21.1835 7.99135 22.1074 7.8379 23.5729 7.84039C24.8797 7.84259 25.6515 7.9439 26.4031 8.21178L26.6275 8.29175L26.6365 9.58157C26.6417 10.3242 26.6322 10.884 26.6142 10.9012C26.5954 10.919 26.4674 10.8788 26.2945 10.8006C25.1908 10.3015 23.9795 10.1233 23.0034 10.3164C22.1265 10.4899 21.481 10.9333 21.1455 11.5926C20.7991 12.2734 20.7782 13.2804 21.0969 13.9389C21.4837 14.7381 22.2847 15.2532 23.3897 15.4134C23.7415 15.4644 24.5328 15.4579 24.9561 15.4007C25.3495 15.3475 26.0471 15.1796 26.5047 15.0281C26.665 14.9751 26.8164 14.9391 26.8412 14.9481C26.8772 14.9612 26.8863 15.2085 26.8863 16.173C26.8863 17.3343 26.8837 17.3828 26.8196 17.4155C26.7828 17.4341 26.7207 17.4494 26.6815 17.4494C26.6083 17.4494 26.5831 17.528 26.6447 17.5642C26.6637 17.5753 26.6792 17.6133 26.6792 17.6485C26.6792 17.6838 26.6941 17.7382 26.7124 17.7695C26.7306 17.8009 26.8012 17.9888 26.8693 18.1871C26.9374 18.3855 27.0079 18.581 27.026 18.6216C27.0909 18.767 27.1207 18.845 27.1634 18.9805C27.1873 19.0562 27.2274 19.1257 27.2525 19.1348C27.2777 19.144 27.3793 19.1286 27.4784 19.1007C27.6587 19.0498 27.8527 18.8974 27.8527 18.8066C27.8527 18.7815 27.8644 18.7608 27.8786 18.7607C27.8929 18.7605 27.9209 18.7273 27.941 18.6869C28.0062 18.5554 28.2492 18.122 28.2672 18.1052C28.2768 18.0961 28.3296 18.0091 28.3844 17.9116C28.4653 17.7678 28.4766 17.7232 28.4445 17.6744C28.4153 17.6299 28.405 16.3669 28.405 12.8279C28.405 8.12935 28.4062 8.04092 28.4717 8.00761C28.5438 7.97099 32.2208 7.95754 32.3196 7.99358C32.3682 8.01128 32.3742 8.1687 32.3747 9.42805C32.375 10.2061 32.3888 10.8631 32.4055 10.888C32.4294 10.9239 32.4451 10.917 32.4801 10.8552C32.5045 10.8122 32.5659 10.7033 32.6165 10.6131C32.6672 10.5229 32.7442 10.3902 32.7876 10.318C32.831 10.2459 32.9165 10.0983 32.9776 9.99014C33.0386 9.88194 33.124 9.73439 33.1674 9.66226C33.2107 9.59012 33.2964 9.44258 33.3578 9.33438C33.4192 9.22618 33.5259 9.04401 33.5949 8.92958C33.6638 8.81515 33.7202 8.71619 33.7202 8.7097C33.7202 8.70321 33.764 8.62717 33.8174 8.54071C33.8708 8.45425 33.9897 8.25073 34.0817 8.08843C34.2959 7.71019 34.384 7.57878 34.4751 7.50137C34.5502 7.43753 34.5718 7.32293 34.5193 7.2671C34.5031 7.24995 34.4657 7.17631 34.4361 7.10345C34.4066 7.03056 34.3208 6.84613 34.2455 6.6936C34.0506 6.29867 33.9273 6.03948 33.9273 6.02443C33.9273 6.01728 33.8497 5.85426 33.7548 5.66212C33.6598 5.46999 33.5822 5.30697 33.5822 5.29982C33.5822 5.27719 33.3966 4.90872 33.3767 4.89161C33.3661 4.88259 33.3359 4.8162 33.3096 4.74406C33.2833 4.67193 33.2035 4.49487 33.1322 4.35061C33.061 4.20634 32.9679 4.01453 32.9254 3.92436C32.7824 3.62081 32.6778 3.4009 32.5775 3.19253C32.5226 3.07856 32.4777 2.97987 32.4777 2.97318C32.4777 2.96649 32.4001 2.80577 32.3051 2.61602C32.2102 2.42628 32.1326 2.26352 32.1326 2.25431C32.1326 2.24513 32.0627 2.09742 31.9773 1.92607C31.8918 1.75468 31.8219 1.60842 31.8219 1.60097C31.8219 1.59353 31.7546 1.4493 31.6722 1.28047C31.5898 1.11161 31.4872 0.900131 31.4441 0.810522C31.3354 0.584514 31.2981 0.565169 30.9763 0.56871C30.8245 0.570382 25.6913 0.841965 19.5692 1.17221ZM29.7683 2.91239C29.6354 2.93895 29.3792 3.0283 29.1988 3.11096C28.6562 3.35966 28.2916 3.75675 28.0906 4.31782C28.0256 4.4995 28.0256 5.40749 28.0907 5.62934C28.3771 6.6057 29.473 7.21273 30.7261 7.08922C31.3281 7.02991 31.7833 6.83 32.1843 6.44894C32.6032 6.05092 32.7502 5.72432 32.7798 5.12627C32.8037 4.64458 32.7517 4.36169 32.5742 4.00873C32.3019 3.46697 31.6986 3.04023 31.0209 2.9099C30.6909 2.84646 30.0923 2.84764 29.7683 2.91239ZM52.1684 4.74829C51.5634 4.81065 51.0016 4.98141 50.6226 5.21808C49.9501 5.63799 49.6308 6.21896 49.6321 7.01987C49.6339 8.03801 50.0686 8.65481 51.1675 9.19847C51.3003 9.26421 51.6984 9.44881 52.0519 9.60868C52.9248 10.0034 53.1075 10.1688 53.0317 10.4966C53 10.6333 52.8545 10.7914 52.705 10.8516C52.3765 10.9837 51.6869 10.9545 50.9606 10.7777C50.5759 10.684 50.2306 10.5654 49.6057 10.3121C49.5717 10.2983 49.5625 10.4951 49.5625 11.2344V12.1741L49.761 12.2578C50.0814 12.3927 50.5223 12.5197 50.8741 12.5782C51.3118 12.6511 52.2563 12.6805 52.6549 12.6336C53.9371 12.4828 54.8194 11.8918 55.1573 10.9574C55.2645 10.661 55.2901 9.98525 55.2076 9.63285C55.0503 8.96122 54.5627 8.47622 53.6007 8.03437C52.3272 7.4494 52.1693 7.36874 52.0068 7.21995C51.859 7.08456 51.8405 7.05211 51.8405 6.92735C51.8405 6.74655 51.9199 6.62193 52.0962 6.52589C52.2247 6.45595 52.2778 6.4491 52.6861 6.44982C53.2598 6.45084 53.6782 6.54979 54.4692 6.87154L54.5956 6.92295L54.9332 6.12011C55.1533 5.59658 55.2589 5.30611 55.2369 5.28519C55.1282 5.18191 54.0905 4.87643 53.5662 4.79337C53.3242 4.75505 52.3939 4.72504 52.1684 4.74829ZM58.5807 4.76151C57.7386 4.86213 56.9761 5.2209 56.595 5.69573C56.2896 6.07624 56.1738 6.4432 56.1762 7.02283C56.1791 7.73996 56.3474 8.15899 56.8091 8.59871C57.1403 8.91413 57.4296 9.08273 58.3384 9.48983C59.4274 9.97768 59.5714 10.0835 59.5717 10.3961C59.572 10.8084 59.1312 10.9929 58.3181 10.9207C57.7243 10.8679 57.0023 10.6769 56.4002 10.4133C56.2599 10.3519 56.1395 10.3016 56.1327 10.3016C56.1259 10.3016 56.1203 10.7274 56.1203 11.2479V12.194L56.3878 12.2938C57.0526 12.5418 57.4891 12.6245 58.2775 12.6522C58.9178 12.6746 59.4042 12.6308 59.8442 12.5111C61.1484 12.1564 61.89 11.2169 61.8034 10.0292C61.7627 9.47002 61.5993 9.09037 61.2533 8.75069C60.9482 8.45123 60.6108 8.25424 59.5864 7.77764C58.6035 7.32031 58.4238 7.20165 58.3802 6.98099C58.3501 6.82839 58.4065 6.68901 58.5424 6.58038C58.6996 6.45477 58.8854 6.42244 59.3302 6.44336C59.7886 6.46491 60.1849 6.55684 60.7573 6.77452L61.1318 6.91689L61.1768 6.81413C61.4882 6.10309 61.8094 5.29965 61.7891 5.28247C61.7438 5.24404 61.1171 5.02738 60.8143 4.94551C60.653 4.90187 60.3734 4.84131 60.1931 4.81095C59.8072 4.74593 58.9348 4.71918 58.5807 4.76151ZM41.6241 8.69501V12.564L43.0306 12.564C44.8496 12.5639 45.342 12.5211 46.0167 12.3041C46.5881 12.1204 47.0209 11.8686 47.4252 11.4845C48.1724 10.7747 48.5275 9.81964 48.5269 8.5212C48.5263 7.36612 48.1882 6.46753 47.5224 5.85141C47.1528 5.50937 46.8578 5.3289 46.3648 5.14316C45.6711 4.8818 45.0913 4.82603 43.0687 4.82603H41.6241V8.69501ZM43.8331 8.67363V10.8262L44.1696 10.8251C45.2971 10.8212 45.8773 10.4291 46.1324 9.49832C46.2216 9.17283 46.2236 8.09368 46.1355 7.76383C46.0068 7.28169 45.7362 6.91256 45.3892 6.7456C45.0971 6.60511 44.8721 6.56107 44.3422 6.54065L43.8331 6.52104V8.67363ZM9.8915 10.1896C9.85823 10.2719 9.86828 12.5754 9.9021 12.6261C9.92709 12.6636 10.022 12.6677 10.4279 12.6486C11.2189 12.6113 11.624 12.4915 11.9307 12.2042C12.3444 11.8167 12.3514 10.9806 11.9443 10.5979C11.6792 10.3487 11.3493 10.2291 10.7679 10.1714C10.2527 10.1202 9.9167 10.1272 9.8915 10.1896ZM36.4642 11.949C36.4072 12.0435 36.3544 12.1357 36.3468 12.1539C36.3392 12.172 36.3227 12.1943 36.31 12.2033C36.2974 12.2123 36.2339 12.3082 36.1689 12.4164C36.1039 12.5246 36.023 12.6574 35.989 12.7115C35.9551 12.7656 35.9181 12.8357 35.907 12.8673C35.8958 12.8988 35.8729 12.9247 35.8561 12.9247C35.8394 12.9247 35.8256 12.9382 35.8256 12.9547C35.8256 12.9713 35.7534 13.1004 35.6652 13.2416C35.3772 13.7026 35.3044 13.8254 35.2847 13.8837C35.2741 13.9153 35.2516 13.9411 35.2349 13.9411C35.2181 13.9411 35.2044 13.954 35.2044 13.9697C35.2044 13.9854 35.119 14.1335 35.0145 14.2988C34.9101 14.4642 34.8247 14.6136 34.8247 14.6309C34.8247 14.6482 34.8092 14.6624 34.7902 14.6624C34.7712 14.6624 34.7557 14.6766 34.7557 14.6939C34.7557 14.7113 34.6703 14.8607 34.5659 15.026C34.4614 15.1913 34.376 15.3318 34.376 15.3381C34.376 15.3445 34.3217 15.4304 34.2552 15.5291C34.1888 15.6278 34.1344 15.7147 34.1344 15.7223C34.1344 15.7298 34.049 15.8713 33.9446 16.0366C33.8402 16.2019 33.7548 16.3513 33.7548 16.3687C33.7548 16.386 33.7392 16.4002 33.7202 16.4002C33.7013 16.4002 33.6857 16.4137 33.6857 16.4303C33.6857 16.4468 33.6158 16.5726 33.5304 16.7099C33.445 16.8472 33.3751 16.9672 33.3751 16.9767C33.3751 16.9861 33.3363 17.0481 33.2888 17.1145C33.2029 17.2346 33.1753 17.351 33.2327 17.351C33.2493 17.351 33.5172 17.2718 33.828 17.1749C34.1389 17.0781 34.5098 16.9662 34.6521 16.9263C34.7945 16.8863 34.938 16.8402 34.9709 16.8236C35.0039 16.8071 35.0546 16.7936 35.0836 16.7936C35.1126 16.7936 35.1633 16.7807 35.1962 16.7649C35.2292 16.749 35.3105 16.7208 35.377 16.7021C35.87 16.563 36.1237 16.4839 36.1518 16.4604C36.1698 16.4453 36.2128 16.433 36.2472 16.433C36.2816 16.433 36.3368 16.4195 36.3697 16.403C36.4027 16.3864 36.5461 16.3404 36.6885 16.3007C36.8309 16.261 37.1027 16.1807 37.2925 16.1224C37.4824 16.0641 37.7775 15.9755 37.9483 15.9256C38.1192 15.8756 38.29 15.8231 38.328 15.809C38.3659 15.7948 38.4242 15.7749 38.4574 15.7648C38.5197 15.7459 38.5423 15.6789 38.4863 15.6789C38.469 15.6789 38.4444 15.6198 38.4315 15.5477C38.4187 15.4756 38.394 15.4165 38.3767 15.4165C38.3594 15.4165 38.3452 15.387 38.3452 15.351C38.3452 15.3149 38.3297 15.2854 38.3107 15.2854C38.2917 15.2854 38.2762 15.2559 38.2762 15.2198C38.2762 15.1838 38.2607 15.1542 38.2417 15.1542C38.2227 15.1542 38.2072 15.1247 38.2072 15.0887C38.2072 15.0526 38.1916 15.0231 38.1726 15.0231C38.1537 15.0231 38.1381 14.9934 38.1381 14.9571C38.1381 14.9208 38.1236 14.8654 38.1058 14.8341C38.0309 14.702 37.9656 14.551 37.9656 14.5098C37.9656 14.4856 37.95 14.4657 37.931 14.4657C37.9121 14.4657 37.8965 14.4362 37.8965 14.4001C37.8965 14.3641 37.881 14.3345 37.862 14.3345C37.843 14.3345 37.8275 14.2977 37.8275 14.2526C37.8275 14.2075 37.815 14.1706 37.7998 14.1706C37.7846 14.1706 37.743 14.0932 37.7075 13.9985C37.6719 13.9038 37.6145 13.7779 37.5799 13.7188C37.5452 13.6596 37.5169 13.5895 37.5169 13.563C37.5169 13.5365 37.5013 13.5148 37.4824 13.5148C37.4634 13.5148 37.4478 13.4925 37.4478 13.4652C37.4478 13.4379 37.4327 13.39 37.4142 13.3586C37.3353 13.2251 37.2062 12.9418 37.2062 12.9021C37.2062 12.8785 37.1907 12.8591 37.1717 12.8591C37.1527 12.8591 37.1372 12.8296 37.1372 12.7935C37.1372 12.7574 37.1217 12.7279 37.1027 12.7279C37.0837 12.7279 37.0682 12.7081 37.0682 12.6838C37.0682 12.6398 37.0191 12.5295 36.893 12.2904C36.8565 12.2211 36.8266 12.1436 36.8266 12.1182C36.8266 12.0929 36.811 12.0722 36.7921 12.0722C36.7731 12.0722 36.7575 12.0523 36.7575 12.028C36.7575 11.9549 36.6518 11.7771 36.6083 11.7771C36.586 11.7771 36.5211 11.8545 36.4642 11.949ZM42.3662 13.8662C42.1187 13.9472 41.8292 14.2259 41.7264 14.4821C41.6137 14.7629 41.6142 15.3121 41.7273 15.5969C41.8312 15.8584 42.0918 16.1062 42.3327 16.1726C42.5705 16.2381 43.0466 16.2308 43.2722 16.1581L43.4534 16.0998V15.8893C43.4534 15.6484 43.4622 15.6528 43.1388 15.7316C42.8694 15.7971 42.5874 15.7795 42.4597 15.689C42.2917 15.5701 42.2329 15.4308 42.217 15.1146C42.1993 14.7634 42.2507 14.5653 42.3983 14.4167C42.5849 14.2287 42.8346 14.2039 43.1715 14.3398C43.2538 14.373 43.3334 14.4001 43.3485 14.4001C43.3878 14.4001 43.5333 14.0171 43.5085 13.979C43.4213 13.845 42.6608 13.7698 42.3662 13.8662ZM44.5304 13.8702C44.2671 13.9593 44.1097 14.0943 43.9711 14.3504C43.8512 14.5721 43.8503 14.5767 43.8503 15.0033C43.8503 15.5136 43.9009 15.6759 44.1335 15.9121C44.3554 16.1375 44.5671 16.2146 44.9721 16.2175C45.5363 16.2216 45.8362 16.0645 46.0492 15.6536C46.1586 15.4425 46.1628 15.4197 46.1628 15.0402C46.1628 14.7445 46.1472 14.6036 46.1004 14.4761C46.0063 14.2199 45.834 14.0271 45.603 13.9197C45.4323 13.8404 45.3557 13.8261 45.0588 13.8179C44.789 13.8106 44.6731 13.822 44.5304 13.8702ZM55.2654 14.9506C55.0346 15.5792 54.8355 16.1189 54.823 16.1498C54.8024 16.2008 54.829 16.2052 55.1063 16.1966L55.4123 16.1871L55.4976 15.9166L55.583 15.6461H56.0186H56.4541L56.542 15.9166L56.6299 16.1871L56.9301 16.1966C57.2056 16.2053 57.2286 16.2013 57.2096 16.1474C57.1982 16.1151 56.9989 15.5797 56.7668 14.9575L56.3447 13.8263L56.0148 13.817L55.685 13.8077L55.2654 14.9506ZM46.6633 15.0231V16.2035H46.9043H47.1453L47.1545 15.3652L47.1637 14.5269L47.3128 14.9963C47.3949 15.2545 47.5161 15.6317 47.5822 15.8346L47.7026 16.2035H47.9514H48.2002L48.4988 15.3592L48.7975 14.5149L48.8004 15.3592L48.8032 16.2035H49.0621H49.3209V15.0231V13.8427H48.9472H48.5735L48.2835 14.6952C48.124 15.1641 47.9854 15.5476 47.9755 15.5474C47.9657 15.5473 47.8333 15.1637 47.6815 14.695L47.4053 13.843L47.0343 13.8428L46.6633 13.8427V15.0231ZM49.9077 15.0217V16.2062L50.1752 16.1966L50.4426 16.1871L50.4523 15.7892L50.462 15.3913L50.7284 15.368C51.2325 15.324 51.5187 15.1303 51.602 14.777C51.6865 14.4181 51.5452 14.0857 51.2431 13.9328C51.1126 13.8667 51.0401 13.8585 50.503 13.8484L49.9077 13.8373V15.0217ZM52.0476 15.0231V16.2035H52.8242H53.6007V15.9739V15.7444H53.1003H52.5998V14.7936V13.8427H52.3237H52.0476V15.0231ZM53.9886 15.0149L53.9977 16.1871L54.2652 16.1966L54.5326 16.2062V15.0245V13.8427H54.2561H53.9795L53.9886 15.0149ZM57.5009 15.0231V16.2035H57.7419H57.9829L57.9922 15.3606L58.0014 14.5178L58.5063 15.3524L59.0113 16.1871L59.3606 16.1964L59.7099 16.2058V15.0242V13.8427H59.4688H59.2278L59.2186 14.6797L59.2094 15.5167L58.6979 14.6797L58.1864 13.8427H57.8437H57.5009V15.0231ZM60.055 14.0558V14.269H60.3829H60.7108V15.2362V16.2035H60.9869H61.263V15.2362V14.269H61.5909H61.9188V14.0558V13.8427H60.9869H60.055V14.0558ZM44.8435 14.268C44.6711 14.3069 44.5724 14.3838 44.4919 14.5416C44.3392 14.8413 44.3678 15.3795 44.5472 15.582C44.6721 15.7229 44.8028 15.7772 45.017 15.7772C45.2472 15.7772 45.4082 15.6854 45.5067 15.4981C45.5896 15.3403 45.6197 14.8772 45.5605 14.6685C45.5048 14.4718 45.35 14.3174 45.1639 14.2729C44.9947 14.2324 45.0009 14.2325 44.8435 14.268ZM50.4599 14.6008V14.9326L50.6722 14.918C50.8504 14.9058 50.8975 14.889 50.9656 14.8139C51.0525 14.7179 51.0759 14.5133 51.0129 14.4014C50.9695 14.3244 50.8009 14.269 50.6101 14.269H50.4599V14.6008ZM55.8812 14.7034C55.8181 14.9063 55.7588 15.0981 55.7495 15.1297C55.7344 15.1811 55.7632 15.187 56.0259 15.187H56.3191L56.179 14.7608C56.1019 14.5264 56.0292 14.3345 56.0175 14.3345C56.0057 14.3345 55.9444 14.5005 55.8812 14.7034Z" fill="#00676E"/>
<path fill-rule="evenodd" clip-rule="evenodd" d="M43.0566 0.596265C43.0449 0.614298 42.935 0.629053 42.8125 0.629053C42.6899 0.629053 42.5627 0.642397 42.5298 0.658726C42.4968 0.675054 42.3301 0.70558 42.1592 0.726564C41.637 0.790697 41.59 0.798894 41.5702 0.829256C41.5597 0.845388 41.4986 0.858568 41.4344 0.858568C41.3702 0.858568 41.3081 0.873323 41.2963 0.891356C41.2846 0.90939 41.2369 0.924144 41.1903 0.924144C41.1437 0.924144 41.0786 0.937194 41.0456 0.953129C41.0127 0.969097 40.8537 1.02126 40.6923 1.0691C40.531 1.1169 40.3368 1.18323 40.2609 1.21645C39.9261 1.36295 39.5692 1.52895 39.5533 1.54554C39.5439 1.55548 39.4951 1.58367 39.4449 1.6082C39.3 1.67902 38.854 2.00595 38.6335 2.20288C38.3229 2.48026 37.7103 3.15687 37.4307 3.53118C37.3927 3.582 37.3458 3.63958 37.3264 3.65915C37.2441 3.7423 37.0338 4.03415 37.0338 4.06526C37.0338 4.08389 37.0219 4.10402 37.0073 4.11005C36.9663 4.12697 36.7231 4.45338 36.7231 4.49151C36.7231 4.51013 36.7099 4.53026 36.6937 4.5363C36.6643 4.54721 36.2744 5.10845 36.2744 5.13992C36.2744 5.14904 36.2456 5.18593 36.2104 5.22183C36.1752 5.25773 36.117 5.34547 36.081 5.41682C36.045 5.48813 36.0039 5.54666 35.9897 5.54689C35.9755 5.54708 35.9638 5.56148 35.9638 5.57889C35.9638 5.5963 35.8784 5.73634 35.774 5.89008C35.6696 6.04382 35.5842 6.17815 35.5842 6.18861C35.5842 6.19904 35.5415 6.2695 35.4892 6.34518C35.341 6.5601 35.3093 6.60925 35.2847 6.66204C35.2722 6.68909 35.2205 6.77024 35.1698 6.84237C35.1192 6.91451 35.0325 7.05468 34.9772 7.15386C34.9218 7.25304 34.8649 7.33911 34.8507 7.34511C34.8365 7.35114 34.8248 7.37098 34.8248 7.38924C34.8248 7.40751 34.7955 7.46161 34.7596 7.50948C34.6687 7.63076 34.4798 7.94549 34.4565 8.01454C34.4458 8.04608 34.4234 8.07192 34.4066 8.07192C34.3899 8.07192 34.3761 8.08546 34.3761 8.10199C34.3761 8.11855 34.3037 8.24763 34.2152 8.38888C33.988 8.75145 33.7886 9.09478 33.766 9.16212C33.7555 9.19366 33.7331 9.2195 33.7163 9.2195C33.6996 9.2195 33.6858 9.23567 33.6858 9.25544C33.6858 9.27518 33.6572 9.33052 33.6223 9.37839C33.5873 9.42626 33.5141 9.54656 33.4597 9.64574C33.4053 9.74493 33.3351 9.86296 33.3036 9.90805C33.2722 9.95313 33.1922 10.0859 33.1257 10.2031C33.0593 10.3204 32.9696 10.4753 32.9263 10.5474C32.8831 10.6195 32.8085 10.745 32.7606 10.8261C32.7127 10.9073 32.6426 11.0253 32.6047 11.0884C32.3946 11.4388 32.2644 11.6688 32.2474 11.7196C32.2368 11.7511 32.2144 11.777 32.1977 11.777C32.1809 11.777 32.1672 11.8065 32.1672 11.8425C32.1672 11.8786 32.1535 11.9081 32.1367 11.9081C32.1199 11.9081 32.0972 11.9339 32.0863 11.9655C32.0753 11.997 31.9958 12.1409 31.9096 12.2852C31.8234 12.4294 31.7179 12.6139 31.6753 12.695C31.6326 12.7762 31.5897 12.8499 31.58 12.859C31.5702 12.868 31.5238 12.9491 31.4769 13.0393C31.43 13.1295 31.3813 13.2106 31.3687 13.2196C31.3562 13.2287 31.3024 13.3246 31.2492 13.4328C31.196 13.541 31.1439 13.6369 31.1335 13.6459C31.1143 13.6625 31.0221 13.822 30.8588 14.1213C30.8096 14.2115 30.7614 14.2926 30.7516 14.3016C30.7332 14.3187 30.5854 14.5818 30.4201 14.8918C30.3672 14.991 30.3154 15.0795 30.305 15.0885C30.2946 15.0976 30.2303 15.2082 30.162 15.3345C30.0179 15.6011 29.78 16.0243 29.6554 16.2361C29.6076 16.3173 29.5219 16.4648 29.4649 16.564C29.3388 16.7834 29.2311 16.9686 29.1409 17.1214C29.1037 17.1845 29.0278 17.3173 28.9724 17.4165C28.9169 17.5157 28.8637 17.6042 28.854 17.6132C28.8336 17.6324 28.7484 17.7766 28.6383 17.9786C28.5955 18.0571 28.5488 18.1264 28.5345 18.1324C28.5203 18.1384 28.5086 18.1558 28.5086 18.1712C28.5086 18.2185 27.851 19.2262 27.7697 19.3035C27.749 19.3232 27.6943 19.3917 27.6481 19.4558C27.6019 19.5198 27.5341 19.59 27.4974 19.6118C27.4389 19.6465 27.4141 19.634 27.2966 19.5107C27.2229 19.4333 27.1625 19.351 27.1625 19.3277C27.1625 19.3045 27.147 19.2854 27.128 19.2854C27.1091 19.2854 27.0935 19.2589 27.0935 19.2264C27.0935 19.1939 27.0804 19.1533 27.0644 19.1362C27.0484 19.1191 26.9925 19.0018 26.9401 18.8756C26.8878 18.7493 26.831 18.6204 26.814 18.5891C26.7969 18.5578 26.7829 18.5033 26.7829 18.4681C26.7829 18.4329 26.7674 18.3949 26.7484 18.3837C26.7294 18.3726 26.7139 18.3346 26.7139 18.2994C26.7139 18.2641 26.6998 18.2097 26.6826 18.1784C26.6654 18.147 26.6248 18.0255 26.5925 17.9083C26.5601 17.7911 26.522 17.6657 26.5077 17.6296C26.4935 17.5935 26.4631 17.505 26.4402 17.4329C26.4174 17.3608 26.3858 17.2722 26.3701 17.2362C26.3544 17.2001 26.2992 17.0378 26.2474 16.8755C26.1957 16.7132 26.1241 16.5223 26.0885 16.4513C26.0528 16.3803 26.0236 16.3028 26.0236 16.2791C26.0236 16.2555 26.008 16.2361 25.989 16.2361C25.9701 16.2361 25.9545 16.2157 25.9545 16.1907C25.9545 16.0731 25.7666 15.8255 25.5893 15.7097C25.4459 15.6159 25.4297 15.6132 25.0251 15.6132C24.7703 15.6132 24.6085 15.6259 24.6085 15.6459C24.6085 15.664 24.5628 15.6787 24.507 15.6787C24.4511 15.6787 24.3971 15.6916 24.3869 15.7073C24.3767 15.723 24.3225 15.7445 24.2666 15.7552C24.0512 15.7961 23.4347 16.1301 23.1529 16.3585C22.7454 16.6889 22.3648 17.1154 22.2382 17.3837C22.118 17.6383 22.0892 17.7115 22.057 17.8441C21.9876 18.1302 22.0136 18.6437 22.1251 19.187C22.1417 19.2682 22.1647 19.3862 22.1762 19.4493C22.1877 19.5125 22.2106 19.5936 22.2271 19.6297C22.2437 19.6657 22.2646 19.7469 22.2737 19.81C22.2828 19.8731 22.3319 20.1018 22.3829 20.3182C22.4339 20.5346 22.4834 20.7671 22.493 20.8348C22.5025 20.9026 22.5243 20.9662 22.5412 20.9761C22.5582 20.9861 22.5721 21.0442 22.5721 21.1051C22.5721 21.1661 22.5876 21.2251 22.6066 21.2363C22.6256 21.2474 22.6411 21.3002 22.6411 21.3534C22.6411 21.4067 22.6549 21.4759 22.6718 21.5073C22.6886 21.5386 22.7211 21.6527 22.7439 21.7609C22.7668 21.8691 22.8006 22.0166 22.8193 22.0888C22.838 22.1609 22.8616 22.268 22.8718 22.3268C22.882 22.3856 22.9042 22.4418 22.921 22.4517C22.9379 22.4616 22.9518 22.5122 22.9518 22.5642C22.9518 22.6162 22.9673 22.6678 22.9863 22.679C23.0052 22.6901 23.0208 22.7345 23.0208 22.7777C23.0208 22.8209 23.0348 22.8901 23.0518 22.9315C23.0689 22.9729 23.1092 23.1027 23.1413 23.22C23.1735 23.3372 23.2139 23.4587 23.2311 23.49C23.2483 23.5213 23.2624 23.5758 23.2624 23.611C23.2624 23.6463 23.2779 23.6842 23.2969 23.6954C23.3159 23.7065 23.3314 23.7487 23.3314 23.7891C23.3314 23.8296 23.3438 23.8766 23.3589 23.8938C23.374 23.9109 23.4068 23.9839 23.4319 24.0561C23.4863 24.2128 23.5559 24.3716 23.6453 24.5428C23.6815 24.6121 23.7111 24.6896 23.7111 24.7149C23.7111 24.7403 23.7229 24.761 23.7374 24.761C23.7519 24.761 23.7915 24.8217 23.8253 24.8959C23.9686 25.2099 24.5532 25.9086 24.6728 25.9086C24.6944 25.9086 24.712 25.9215 24.712 25.9373C24.712 25.9784 25.1743 26.2037 25.2586 26.2037C25.2974 26.2037 25.3377 26.2168 25.3482 26.2329C25.3823 26.2853 25.6172 26.3096 26.2273 26.3238C26.6187 26.333 26.8406 26.3259 26.8641 26.3035C26.884 26.2847 26.9428 26.2692 26.9948 26.2692C27.0469 26.2692 27.099 26.2545 27.1108 26.2365C27.1225 26.2184 27.161 26.2037 27.1963 26.2037C27.2822 26.2037 27.7066 25.9962 27.8323 25.8927C27.8875 25.8473 27.944 25.8102 27.9579 25.8102C27.9926 25.8102 28.5086 25.3174 28.5086 25.2843C28.5086 25.2695 28.5288 25.238 28.5534 25.2142C28.7079 25.0647 29.2334 24.1856 29.2334 24.0766C29.2334 24.0597 29.263 23.9891 29.2992 23.9198C29.3675 23.7887 29.5294 23.4485 29.5775 23.3347C29.5928 23.2987 29.6925 23.099 29.799 22.8911C29.9056 22.6832 29.9928 22.4951 29.9928 22.4731C29.9928 22.4511 30.0083 22.4331 30.0273 22.4331C30.0463 22.4331 30.0618 22.4048 30.0618 22.3702C30.0618 22.3356 30.0736 22.3025 30.088 22.2964C30.1215 22.2825 30.3724 21.8044 30.3724 21.7545C30.3724 21.734 30.3841 21.7123 30.3983 21.7062C30.4232 21.6958 30.5397 21.4879 30.9557 20.7117C31.062 20.5133 31.1606 20.3461 31.1749 20.3401C31.1891 20.3341 31.2008 20.3021 31.2008 20.269C31.2008 20.236 31.2127 20.204 31.2272 20.198C31.2417 20.192 31.3154 20.069 31.391 19.9248C31.4665 19.7805 31.5362 19.6551 31.5458 19.6461C31.5553 19.6371 31.621 19.5247 31.6916 19.3963C31.7623 19.268 31.8749 19.0688 31.9419 18.9537C32.0089 18.8386 32.1137 18.6485 32.1747 18.5313C32.2358 18.4141 32.2942 18.3108 32.3044 18.3018C32.3226 18.2857 32.4267 18.1048 32.5873 17.8099C32.6315 17.7288 32.6793 17.6575 32.6935 17.6515C32.7078 17.6455 32.7194 17.6282 32.7194 17.6132C32.7194 17.5982 32.8066 17.4408 32.9132 17.2635C33.0198 17.0862 33.1468 16.8747 33.1955 16.7935C33.2441 16.7124 33.3161 16.587 33.3555 16.5148C33.3948 16.4427 33.4347 16.3763 33.4442 16.3673C33.4645 16.348 33.5506 16.2021 33.6597 16.0019C33.7025 15.9234 33.7454 15.8517 33.7549 15.8427C33.7644 15.8337 33.7944 15.7894 33.8215 15.7443C34.0417 15.3788 34.1 15.2751 34.1 15.2493C34.1 15.233 34.1155 15.2197 34.1345 15.2197C34.1535 15.2197 34.169 15.2035 34.169 15.1838C34.169 15.164 34.1979 15.1087 34.2331 15.0608C34.2684 15.0129 34.3365 14.9062 34.3845 14.8237C34.531 14.5716 34.5653 14.5154 34.5832 14.4984C34.6156 14.4676 34.7602 14.2198 34.7793 14.1623C34.7898 14.1307 34.8121 14.1049 34.8289 14.1049C34.8456 14.1049 34.8593 14.0904 34.8593 14.0727C34.8593 14.0551 34.9137 13.9599 34.9801 13.8612C35.0466 13.7625 35.1009 13.6663 35.1009 13.6475C35.1009 13.6286 35.1165 13.6131 35.1355 13.6131C35.1544 13.6131 35.17 13.5973 35.17 13.578C35.17 13.5587 35.2127 13.481 35.2649 13.4053C35.4047 13.2026 35.4379 13.1497 35.5044 13.0229C35.5375 12.9598 35.5915 12.8803 35.6244 12.8463C35.6573 12.8123 35.7088 12.7386 35.7387 12.6824C35.7686 12.6262 35.8549 12.4866 35.9303 12.3721C36.0056 12.2575 36.0674 12.1505 36.0674 12.1344C36.0674 12.1181 36.079 12.1048 36.0932 12.1048C36.1075 12.1048 36.1648 12.0273 36.2207 11.9327C36.2765 11.838 36.4047 11.6403 36.5054 11.4932C36.6062 11.3462 36.6886 11.2097 36.6886 11.19C36.6886 11.1702 36.7015 11.154 36.7173 11.154C36.7331 11.154 36.7677 11.1134 36.7943 11.0638C36.8208 11.0142 36.8747 10.9294 36.914 10.8753C36.9533 10.8212 37.0067 10.7363 37.0327 10.6868C37.0587 10.6372 37.0929 10.5966 37.1086 10.5966C37.1244 10.5966 37.1373 10.5813 37.1373 10.5625C37.1373 10.5437 37.1667 10.4884 37.2026 10.4395C37.2385 10.3907 37.3967 10.1589 37.5541 9.92444C37.7115 9.69001 37.853 9.49328 37.8685 9.48728C37.884 9.48125 37.8966 9.46249 37.8966 9.44557C37.8966 9.4179 38.0601 9.1614 38.1035 9.12114C38.1132 9.11212 38.1431 9.06415 38.17 9.01458C38.1969 8.965 38.2318 8.92441 38.2476 8.92441C38.2634 8.92441 38.2763 8.91169 38.2763 8.89618C38.2763 8.87293 38.7605 8.16724 38.8531 8.05553C38.8681 8.03749 38.9024 7.98215 38.9293 7.93257C38.9562 7.883 38.9912 7.84241 39.0069 7.84241C39.0227 7.84241 39.0356 7.82968 39.0356 7.81418C39.0356 7.79008 39.5315 7.06874 39.6135 6.97353C39.6291 6.95549 39.9739 6.48334 40.3798 5.92431C40.7858 5.36527 41.1309 4.90296 41.1468 4.89696C41.1626 4.89093 41.1755 4.86634 41.1755 4.84231C41.1755 4.81827 41.1884 4.79368 41.2041 4.78765C41.2198 4.78165 41.3243 4.65132 41.4362 4.49803C41.5481 4.34475 41.6595 4.19983 41.6837 4.17602C41.708 4.15219 41.7278 4.12176 41.7278 4.10841C41.7278 4.09507 41.7552 4.05556 41.7887 4.02061C41.8222 3.98562 41.9262 3.85375 42.0196 3.72752C42.1131 3.60128 42.1988 3.49062 42.2101 3.48161C42.2214 3.47259 42.3074 3.36193 42.4012 3.2357C42.495 3.10946 42.5912 2.98405 42.6149 2.957C42.6387 2.92995 42.7831 2.74552 42.9358 2.54715C43.0885 2.34878 43.2328 2.16435 43.2563 2.1373C43.2799 2.11025 43.3374 2.03648 43.384 1.97336C43.4307 1.91024 43.4965 1.83001 43.5302 1.79503C43.564 1.76007 43.5916 1.72178 43.5916 1.70988C43.5916 1.69801 43.6187 1.6582 43.652 1.62141C43.7669 1.4941 43.9196 1.30852 43.9497 1.25947C43.9822 1.20655 43.9115 0.86788 43.8618 0.838699C43.8461 0.829485 43.8327 0.789582 43.8321 0.750073C43.8297 0.592395 43.764 0.563477 43.4086 0.563477C43.2254 0.563477 43.0684 0.5781 43.0566 0.596265ZM0.189273 2.21697C0.0869023 2.26042 0.0874546 2.26075 0.241045 2.24445C0.326469 2.2354 0.450722 2.21645 0.517163 2.20232C0.632373 2.17786 0.629992 2.17658 0.465391 2.17487C0.370476 2.17386 0.246222 2.19281 0.189273 2.21697ZM29.7684 2.91228C29.6355 2.93883 29.3793 3.02818 29.1989 3.11084C28.6563 3.35954 28.2917 3.75663 28.0908 4.3177C28.0257 4.49938 28.0257 5.40737 28.0908 5.62922C28.3772 6.60558 29.4731 7.21261 30.7262 7.0891C31.3282 7.02979 31.7835 6.82988 32.1844 6.44882C32.6033 6.05081 32.7503 5.72421 32.7799 5.12615C32.8038 4.64446 32.7518 4.36157 32.5743 4.00861C32.302 3.46685 31.6988 3.04012 31.021 2.90978C30.691 2.84634 30.0924 2.84752 29.7684 2.91228ZM29.9747 2.92155C29.4275 3.00513 29.0103 3.2014 28.6455 3.54682C28.2584 3.91339 28.1117 4.24078 28.0723 4.82591C27.998 5.92713 28.5943 6.70781 29.7246 6.9891C30.261 7.12258 31.0363 7.06074 31.5326 6.8449C31.9182 6.67719 32.3061 6.3459 32.4974 6.02094C32.7942 5.51679 32.8401 4.74529 32.6075 4.17015C32.3829 3.61463 31.8612 3.18406 31.1884 2.99893C30.8863 2.91582 30.2697 2.8765 29.9747 2.92155ZM22.9345 7.84421C21.8255 7.89362 21.0069 8.05845 20.0353 8.42797C19.8257 8.50767 19.2781 8.77942 19.0599 8.91205C17.9655 9.57709 17.1495 10.6262 16.8825 11.7114C16.8625 11.7925 16.8265 11.9401 16.8024 12.0393C16.7442 12.2787 16.7447 13.462 16.803 13.7278C16.9746 14.5094 17.1594 14.9542 17.5301 15.478C18.262 16.5121 19.399 17.2047 21.0017 17.5929C21.4025 17.6899 21.7484 17.7509 21.7718 17.7287C21.7919 17.7095 21.7484 17.6969 21.4849 17.6456C21.0423 17.5595 20.4998 17.4171 20.1714 17.3008C18.3157 16.6437 17.2174 15.4846 16.8779 13.8247C16.7936 13.4122 16.7746 12.5185 16.8417 12.1212C17.0067 11.1452 17.4322 10.3616 18.187 9.64368C19.5414 8.35551 21.5875 7.76749 24.2518 7.90064C25.1972 7.94792 25.7991 8.0513 26.4291 8.27468L26.6103 8.33895V9.5806C26.6103 10.266 26.5966 10.8303 26.5797 10.8402C26.5629 10.85 26.4115 10.7976 26.2432 10.7237C25.8643 10.5572 25.2387 10.3574 24.8501 10.279C24.618 10.2321 24.4052 10.2202 23.8319 10.2216C23.0071 10.2237 22.7849 10.2627 22.2787 10.4939C21.6324 10.7891 21.1496 11.2981 20.9682 11.8753C20.7074 12.7055 20.7875 13.5591 21.1844 14.1798C21.5874 14.8099 22.1348 15.1728 23.0096 15.3898C23.3961 15.4856 23.4525 15.4911 24.0735 15.4914C24.9457 15.4918 25.4679 15.4052 26.4345 15.0998C26.7189 15.0099 26.7995 14.9952 26.8222 15.0292C26.8575 15.0822 26.8607 17.2877 26.8255 17.3378C26.8116 17.3576 26.7536 17.3897 26.6966 17.409C26.6051 17.44 26.6024 17.4444 26.673 17.4467C26.7169 17.4481 26.783 17.434 26.8197 17.4153C26.8838 17.3827 26.8864 17.3342 26.8864 16.1729C26.8864 15.2084 26.8773 14.9611 26.8413 14.948C26.8165 14.9389 26.6651 14.9749 26.5048 15.028C26.0472 15.1795 25.3496 15.3473 24.9562 15.4006C24.5329 15.4578 23.7416 15.4642 23.3898 15.4132C22.2848 15.2531 21.4838 14.7379 21.097 13.9388C20.9189 13.5708 20.8393 13.0485 20.8849 12.5475C20.9673 11.6438 21.3791 11.0147 22.1579 10.6028C23.1923 10.0557 24.8196 10.1335 26.2946 10.8005C26.4675 10.8787 26.5955 10.9189 26.6143 10.901C26.6323 10.8839 26.6418 10.3241 26.6366 9.58145L26.6276 8.29163L26.4032 8.21166C25.8074 7.9993 25.111 7.88221 24.2978 7.85769C23.9846 7.84824 23.6584 7.8365 23.573 7.83159C23.4876 7.82667 23.2003 7.83237 22.9345 7.84421ZM6.03089 8.00674C5.97381 8.04041 5.97049 8.30249 5.97049 12.7603C5.97049 15.8702 5.98226 17.4851 6.00501 17.4985C6.02796 17.5119 6.03952 15.9304 6.03952 12.7789V8.03913H8.58861C10.0324 8.03913 11.3307 8.05382 11.5828 8.073C13.3566 8.20802 14.7274 8.73129 15.3864 9.52485C15.7376 9.94775 15.912 10.3762 15.9788 10.9798C16.1628 12.6415 15.1439 13.8967 13.1668 14.4441C12.3812 14.6616 11.8964 14.7241 10.7939 14.7502C10.1988 14.7643 9.92923 14.7823 9.90549 14.8095C9.88454 14.8335 9.86793 15.3908 9.86241 16.2554L9.8534 17.6624L7.95509 17.6792L6.05678 17.696L7.96251 17.7038C9.81571 17.7114 9.86921 17.7098 9.90397 17.6482C9.92695 17.6073 9.93969 17.0935 9.93969 16.2055V14.8262L10.3625 14.8261C12.5527 14.8254 14.2051 14.3515 15.1252 13.4603C15.6365 12.965 15.8791 12.5253 16.0099 11.857C16.0585 11.6086 16.0605 11.0041 16.0133 10.7997C15.9938 10.715 15.9608 10.572 15.94 10.4818C15.8927 10.2766 15.716 9.90592 15.5621 9.68919C14.9413 8.81477 13.6946 8.25088 11.9415 8.0515C11.3883 7.98858 6.12916 7.94877 6.03089 8.00674ZM28.4655 8.00897C28.4084 8.04054 28.4051 8.30544 28.4051 12.8402C28.4051 16.6384 28.4141 17.6451 28.4482 17.672C28.4827 17.6992 28.4896 16.7363 28.4824 12.8723L28.4734 8.03858L30.398 8.04707L32.3225 8.05553L32.3403 9.56378C32.3501 10.3933 32.3626 11.0573 32.3681 11.0392C32.3737 11.0212 32.3765 10.3355 32.3743 9.51541C32.3715 8.39797 32.3602 8.01815 32.3293 7.99949C32.2646 7.96044 28.5367 7.96959 28.4655 8.00897ZM9.86203 10.1233C9.84778 10.1372 9.83615 10.7136 9.83615 11.4042C9.83615 12.6283 9.83791 12.6608 9.90549 12.6952C9.99474 12.7406 10.6863 12.7079 11.0614 12.6406C11.4476 12.5712 11.7931 12.4079 11.9873 12.2026C12.2059 11.9717 12.2692 11.7788 12.2671 11.3507C12.2657 11.0557 12.2535 10.983 12.182 10.8425C12.0176 10.5197 11.7196 10.3127 11.234 10.1842C11.0123 10.1256 9.91004 10.0766 9.86203 10.1233ZM9.89161 10.1894C9.85834 10.2718 9.86838 12.5753 9.90221 12.626C9.9272 12.6635 10.0221 12.6676 10.428 12.6484C11.219 12.6112 11.6241 12.4914 11.9308 12.2041C12.3445 11.8166 12.3515 10.9805 11.9444 10.5977C11.6793 10.3486 11.3494 10.2289 10.768 10.1712C10.2528 10.1201 9.91681 10.1271 9.89161 10.1894ZM9.99146 24.3568C9.71307 24.4386 9.70658 24.4414 9.76712 24.454C9.79559 24.4599 9.92761 24.4293 10.0605 24.386C10.3256 24.2995 10.2684 24.2753 9.99146 24.3568Z" fill="#30B14A"/>
<path fill-rule="evenodd" clip-rule="evenodd" d="M29.9745 2.92124C29.4273 3.00482 29.01 3.20109 28.6453 3.54651C28.2582 3.91308 28.1115 4.24047 28.072 4.8256C27.9978 5.92682 28.5941 6.7075 29.7244 6.98879C30.2608 7.12227 31.0361 7.06043 31.5323 6.84459C31.9179 6.67688 32.3059 6.34559 32.4972 6.02063C32.7939 5.51648 32.8398 4.74498 32.6073 4.16984C32.3827 3.61432 31.861 3.18374 31.1881 2.99862C30.8861 2.91551 30.2695 2.87619 29.9745 2.92124ZM22.5794 7.91088C21.8958 7.95764 21.0371 8.12614 20.4445 8.32978C19.4823 8.66045 18.8073 9.05315 18.1868 9.64337C17.432 10.3613 17.0065 11.1449 16.8415 12.1209C16.7744 12.5182 16.7934 13.4119 16.8777 13.8244C17.1271 15.0439 17.7855 15.9895 18.8741 16.6918C19.4569 17.0678 20.4732 17.4502 21.3293 17.6156C21.4337 17.6358 21.5766 17.6634 21.6467 17.6771C21.7965 17.7061 21.7085 17.7888 22.4527 16.9196C23.0799 16.1871 23.3883 15.8848 23.6078 15.7873C23.7744 15.7133 24.6653 15.5839 25.195 15.5567C25.4407 15.5442 25.5144 15.5528 25.6488 15.6101C25.9232 15.7271 26.0227 15.8643 26.2095 16.3834C26.2615 16.5276 26.3179 16.6752 26.3348 16.7112C26.3518 16.7473 26.4153 16.9221 26.476 17.0996L26.5865 17.4223L26.6915 17.4023C26.7492 17.3914 26.8087 17.3642 26.8236 17.3419C26.8599 17.2876 26.8584 15.0835 26.822 15.0289C26.7993 14.9949 26.7187 15.0096 26.4342 15.0995C25.4677 15.4049 24.9455 15.4915 24.0733 15.4911C23.4522 15.4907 23.3958 15.4853 23.0094 15.3895C21.7867 15.0862 21.0612 14.392 20.8613 13.3341C20.7464 12.7262 20.861 11.9753 21.1422 11.4931C21.4832 10.9082 22.0654 10.4953 22.8307 10.2953C23.0732 10.2319 23.1952 10.2229 23.8317 10.2213C24.4049 10.2198 24.6178 10.2318 24.8498 10.2787C25.2384 10.3571 25.8641 10.5568 26.243 10.7234C26.4113 10.7973 26.5627 10.8497 26.5795 10.8399C26.5964 10.83 26.6101 10.2657 26.6101 9.58028V8.33864L26.4289 8.27437C25.4838 7.93928 24.0893 7.8076 22.5794 7.91088ZM6.04783 12.8505L6.05656 17.6621H7.95487H9.85318L9.86219 16.2551C9.86771 15.3904 9.88432 14.8331 9.90527 14.8092C9.92901 14.782 10.1985 14.764 10.7936 14.7499C11.8962 14.7238 12.381 14.6613 13.1666 14.4438C14.6102 14.0441 15.543 13.2769 15.8711 12.2193C16.0984 11.4867 16.011 10.5261 15.6616 9.91456C15.1502 9.01961 14.0642 8.43428 12.4262 8.1707C11.7172 8.05663 11.199 8.03882 8.58825 8.03882H6.03906L6.04783 12.8505ZM28.4739 12.8401C28.4739 15.481 28.4868 17.6494 28.5026 17.6587C28.5183 17.6679 28.5523 17.6246 28.5781 17.5623C28.6038 17.5 28.6357 17.449 28.6489 17.449C28.6621 17.449 28.6816 17.4231 28.6921 17.3916C28.7096 17.3395 28.8516 17.0893 29.0597 16.744C29.1032 16.6719 29.1888 16.5244 29.2499 16.4162C29.3109 16.308 29.3963 16.1604 29.4397 16.0883C29.483 16.0161 29.5684 15.8686 29.6295 15.7604C29.6906 15.6522 29.7714 15.512 29.8091 15.4489C29.8469 15.3858 29.9288 15.2456 29.9911 15.1374C30.0535 15.0292 30.1316 14.8964 30.1647 14.8423C30.1978 14.7882 30.2837 14.6407 30.3557 14.5144C30.5095 14.2445 30.7993 13.7423 31.0273 13.3505C31.1165 13.1972 31.2409 12.9832 31.3037 12.875C31.3665 12.7668 31.4567 12.6119 31.5041 12.5308C31.5515 12.4496 31.6369 12.3021 31.6939 12.2029C31.7509 12.1037 31.8364 11.9562 31.8837 11.875C31.9311 11.7939 32.0166 11.6463 32.0736 11.5471C32.1306 11.448 32.2139 11.3033 32.2587 11.2257L32.3402 11.0846L32.3313 9.56992L32.3223 8.05522L30.3981 8.04676L28.4739 8.03827V12.8401ZM9.86181 10.123C9.84756 10.1369 9.83593 10.7133 9.83593 11.4039C9.83593 12.628 9.83769 12.6605 9.90527 12.6949C9.99452 12.7403 10.6861 12.7076 11.0612 12.6403C11.4474 12.5709 11.7928 12.4076 11.9871 12.2023C12.2056 11.9714 12.269 11.7785 12.2669 11.3504C12.2655 11.0554 12.2533 10.9827 12.1818 10.8422C12.0174 10.5194 11.7194 10.3124 11.2338 10.1839C11.0121 10.1253 9.90982 10.0763 9.86181 10.123Z" fill="#F8FAFA"/>
</g>
<defs>
<clipPath id="clip0_2509_40884">
<rect width="62" height="27" fill="white"/>
</clipPath>
</defs>
</svg>
