<svg xmlns="http://www.w3.org/2000/svg" width="15.261" height="17.976" viewBox="0 0 15.261 17.976"><defs><style>.a{fill:#30bc81;}.b{fill:#fff;}</style></defs><g transform="translate(-31.343 -709.5)"><path class="a" d="M12.131,1.5,4.5,4.768v4.9a10.23,10.23,0,0,0,7.631,9.805,10.23,10.23,0,0,0,7.631-9.805v-4.9Z" transform="translate(26.843 708)"/><path class="b" d="M2.543,10.051.11,7.618a.374.374,0,0,1,0-.529l.529-.529a.374.374,0,0,1,.529,0L2.808,8.2,6.319,4.687a.374.374,0,0,1,.529,0l.529.529a.374.374,0,0,1,0,.529L3.073,10.051A.374.374,0,0,1,2.543,10.051Z" transform="translate(35.375 711.059)"/></g></svg>