<svg xmlns="http://www.w3.org/2000/svg" width="33" height="29" viewBox="0 0 33 29">
	<defs>
		<style>
			.a{fill:#00aeef;}.b{fill:#434343;font-size:17px;font-family:TBCSailec-Bold, TBC Sailec;font-weight:700;}.c{font-family:TBCSailec-Regular, TBC Sailec;font-weight:400;}
		</style>
	</defs>
	<g transform="translate(-41 -27)">
		<path class="a" d="M16.392,29c-6.045-.016-13.589-.272-14.883-.432-.187-.032-.443-.112-.426-.32,0-.176.153-.256.272-.3a2.116,2.116,0,0,1,.29-.08,44.354,44.354,0,0,0,13.811-6.882,3.506,3.506,0,0,1,3.338-.816,40.129,40.129,0,0,1,8.123,3.345,31.58,31.58,0,0,1,3.951,2.5c.783.625,1.311,1.216.92,1.873a1.366,1.366,0,0,1-1.073.576A116.172,116.172,0,0,1,17.652,29ZM.149,26.407a1.322,1.322,0,0,1,0-1.207,105.258,105.258,0,0,1,5.98-11.436c.2-.336.4-.7.606-1.056C9.733,7.56,13.708,1.255,14.5.232c.1-.134.32-.3.505-.2a.374.374,0,0,1,.135.4c0,.017-.051.2-.067.285a42.375,42.375,0,0,0-.556,15.393c.135,1.359.2,2.079-.91,3.253A36.61,36.61,0,0,1,6.55,24.545,31.811,31.811,0,0,1,2.3,26.608a4.068,4.068,0,0,1-1.259.283A.956.956,0,0,1,.149,26.407Zm32.317-.685a2.863,2.863,0,0,0-.213-.2A41.378,41.378,0,0,0,19.493,17.4c-1.23-.566-1.87-.866-2.312-2.4a36.534,36.534,0,0,1-.951-8.6,30.9,30.9,0,0,1,.312-4.659C16.722.765,16.984,0,17.771,0a1.3,1.3,0,0,1,1.017.615c1.87,2.263,4.838,7.42,6.773,10.765.2.349.394.7.591,1.065,2.9,5.124,6.314,11.646,6.789,12.811.066.166.115.432-.065.549a.282.282,0,0,1-.129.032A.523.523,0,0,1,32.465,25.722Z" transform="translate(41 27)" />
	</g>
</svg>
