<svg width="72" height="36" viewBox="0 0 72 36" fill="none" xmlns="http://www.w3.org/2000/svg">
<g clip-path="url(#clip0_2509_40892)">
<path d="M17.0157 2.59061C18.1986 3.01665 19.0518 3.72042 19.7587 4.7322C19.929 5.2404 19.9576 5.74063 19.7979 6.25667C19.6185 6.61787 19.4113 6.80256 19.0475 6.98799C18.7992 7.09416 18.5562 7.17824 18.2975 7.25893C17.9431 7.37905 17.6765 7.5408 17.3794 7.76302C17.1299 8.49243 17.2258 9.32082 17.4796 10.0389C18.2184 11.7325 19.5735 12.9299 21.1876 13.8121C22.1817 14.3028 23.0923 14.4262 24.207 14.3162C24.6388 14.1533 24.8969 14.0057 25.1251 13.6104C25.4542 12.9678 25.4366 12.3829 25.2726 11.6933C24.7937 10.1575 23.7757 9.10662 22.5781 8.05641C21.3948 7.01379 21.3948 7.01379 21.272 6.3437C21.2546 5.78777 21.3744 5.45317 21.6943 4.99369C21.8276 4.83931 21.8276 4.83931 22.0345 4.7385C22.8422 4.63699 23.4427 4.86061 24.1173 5.27842C24.6008 5.61261 24.9913 5.98949 25.3449 6.45239C25.3878 6.50724 25.4308 6.56208 25.475 6.61858C25.8136 7.11012 25.822 7.58736 25.7587 8.16629C25.7245 8.2661 25.6904 8.36591 25.6552 8.46874C25.5189 9.51293 25.8177 10.3932 26.3935 11.2688C27.1418 12.3309 28.0103 13.0971 29.1725 13.7112C29.2493 13.7532 29.3261 13.7952 29.4052 13.8385C30.0089 14.1379 30.5694 14.1859 31.2414 14.1145C31.2756 14.0812 31.3097 14.048 31.3449 14.0137C32.1675 13.9584 32.6965 14.1609 33.3621 14.6186C34.0219 15.1352 34.4848 15.8569 34.7587 16.635C34.8197 17.0427 34.7997 17.3578 34.6164 17.7313C34.301 18.1334 34.301 18.1334 33.9699 18.2102C33.8547 18.2227 33.7395 18.2352 33.6208 18.248C33.4255 18.2699 33.4255 18.2699 33.2264 18.2921C32.6581 18.2795 32.2812 17.9947 31.8621 17.6431C31.3377 17.1352 30.8709 16.5927 30.4268 16.0174C29.6128 15.0195 28.5745 14.4196 27.3104 14.1145C26.8323 14.0435 26.4608 14.096 25.9914 14.2027C25.4983 14.517 25.3087 14.8817 25.138 15.4251C24.9377 16.8066 25.4691 18.0848 26.1725 19.2562C27.0401 20.5105 28.2316 21.5198 29.7099 22.0047C30.2347 22.1393 30.7253 22.213 31.2346 21.9925C31.7944 21.5988 32.0416 20.9743 32.3196 20.3798C32.5565 19.9197 32.5565 19.9197 32.7932 19.7603C33.4076 19.5999 33.9939 19.5927 34.5777 19.8485C35.4267 20.3293 36.0183 21.1131 36.4139 21.9783C36.5859 22.4984 36.5687 23.0524 36.5173 23.5914C36.3686 23.9064 36.3686 23.9064 36.1035 24.0954C35.7961 24.2036 35.4961 24.2573 35.1725 24.2971C34.9965 24.3189 34.9965 24.3189 34.8169 24.3412C34.0009 24.2435 33.2929 23.7333 32.6097 23.3125C32.1182 23.047 31.586 23.02 31.0345 23.0873C30.4565 23.3743 30.1276 23.7516 29.8352 24.3089C29.6523 24.7362 29.6465 25.131 29.6574 25.5888C29.659 25.709 29.659 25.709 29.6607 25.8316C29.6742 26.4141 29.7322 26.9612 29.8966 27.5232C29.9132 27.5933 29.9297 27.6633 29.9467 27.7355C30.0915 28.259 30.3592 28.6763 30.666 29.1237C31.2611 29.9971 31.6343 30.7926 31.5914 31.8655C31.5063 32.5001 31.3044 32.9875 30.8664 33.4652C30.1163 33.9119 29.322 34.0737 28.4483 33.9756C27.7115 33.8386 27.1868 33.3949 26.6897 32.8666C26.0347 32.0158 25.6795 31.0765 25.7255 30.0078C25.828 29.1838 26.2429 28.745 26.8384 28.1912C27.4741 27.5923 27.9525 27.0857 28.0615 26.194C28.2012 24.5191 27.7976 23.1553 26.8114 21.7786C26.6999 21.6279 26.6999 21.6279 26.5863 21.4742C26.5365 21.4039 26.4868 21.3336 26.4355 21.2611C25.751 20.3845 24.4513 19.6192 23.3868 19.3027C22.9628 19.2107 22.5388 19.1976 22.1057 19.1932C22.0204 19.1921 21.9352 19.191 21.8474 19.1898C21.2229 19.2041 20.7138 19.3536 20.1725 19.6595C19.6445 20.1282 19.3956 20.6975 19.2414 21.3734C19.0647 22.9779 19.4504 24.3675 20.3636 25.7132C21.1336 26.7429 22.0916 27.5337 23.1102 28.3195C23.8175 28.882 24.2747 29.5871 24.5173 30.4469C24.5448 30.7715 24.5448 30.7715 24.5432 31.1023C24.544 31.266 24.544 31.266 24.5448 31.4331C24.4849 32.1397 24.1972 32.7643 23.6897 33.2698C22.8585 33.8624 21.954 34.2014 20.9164 34.1358C20.0965 33.9881 19.3921 33.5607 18.8276 32.9674C18.1706 32.179 17.7816 31.3083 17.7285 30.2894C17.7455 29.6017 17.9515 29.0363 18.1911 28.3992C18.4477 27.6925 18.4924 27.0613 18.4139 26.3134C18.4039 26.2174 18.3939 26.1213 18.3835 26.0224C18.1685 24.568 17.347 23.1402 16.2402 22.1409C14.8833 21.0679 13.2636 20.4112 11.5087 20.3085C10.9561 20.3191 10.516 20.4748 10.0087 20.6677C9.03046 21.0354 8.14452 21.147 7.1089 20.8839C6.08988 20.5089 5.13059 19.9078 4.56714 18.9825C4.22763 18.3241 4.01436 17.6775 4.13799 16.9374C4.37222 16.1126 4.69395 15.3771 5.37937 14.8202C6.21265 14.3088 6.99167 14.2461 7.96558 14.3162C9.29049 14.5938 10.2381 15.4349 11.069 16.4333C11.1988 16.5983 11.327 16.7643 11.4549 16.9306C12.4929 18.2786 13.8185 19.2571 15.5048 19.717C15.9471 19.8043 16.393 19.7975 16.8427 19.7981C16.9393 19.8006 17.036 19.803 17.1355 19.8056C17.9274 19.8088 18.6013 19.645 19.2613 19.2063C19.685 18.8626 19.8288 18.3493 19.9656 17.8448C20.1504 16.603 19.968 15.5133 19.3449 14.417C19.0615 13.9881 18.754 13.5945 18.4139 13.2072C18.3578 13.1413 18.3018 13.0754 18.2441 13.0075C17.2398 11.9273 15.6627 11.1841 14.2105 10.9171C13.0007 10.7751 12.0344 10.9369 10.9979 11.5689C10.6713 11.7919 10.4004 12.038 10.1251 12.3187C9.6561 12.7847 9.31572 12.974 8.65335 13.0402C7.53145 13.0847 6.6713 12.84 5.75437 12.2116C5.09852 11.6904 4.57107 11.0925 4.34489 10.2835C4.25477 9.45126 4.3405 8.70467 4.70696 7.94575C5.08106 7.53559 5.46403 7.32334 6.00006 7.15812C7.33094 6.97143 8.41526 7.4275 9.53266 8.08595C9.71562 8.19831 9.89745 8.31246 10.0774 8.42936C11.1523 9.10908 12.2782 9.41897 13.5518 9.42651C13.6723 9.42746 13.6723 9.42746 13.7952 9.42843C14.482 9.41361 15.094 9.25002 15.6595 8.85311C16.0829 8.4111 16.1157 8.00237 16.1703 7.41646C16.0903 6.52792 15.6715 5.8673 15.1803 5.1335C14.8894 4.65867 14.8588 4.28251 14.8966 3.73032C14.9988 3.27901 15.1321 2.99324 15.4785 2.67174C16.016 2.43894 16.4506 2.43649 17.0157 2.59061Z" fill="#A12382"/>
<path d="M41.5866 12.9043C42.1669 12.9043 42.7473 12.9043 43.3452 12.9043C43.3462 13.1164 43.3472 13.3285 43.3482 13.547C43.3517 14.2504 43.3574 14.9538 43.3642 15.6572C43.3683 16.0833 43.3717 16.5095 43.3733 16.9356C43.3748 17.3475 43.3784 17.7593 43.3833 18.1711C43.3849 18.3277 43.3857 18.4842 43.3858 18.6408C43.3773 19.8638 43.3773 19.8638 43.8625 20.9697C44.184 21.3179 44.5433 21.5345 45.0004 21.6754C46.1539 21.7759 46.1539 21.7759 47.2569 21.5053C47.6986 21.193 48.0044 20.8592 48.2073 20.3648C48.2413 20.0223 48.2413 20.0223 48.2403 19.6342C48.2413 19.5613 48.2424 19.4885 48.2434 19.4135C48.2466 19.1735 48.2484 18.9335 48.2501 18.6934C48.2521 18.5267 48.2541 18.36 48.2562 18.1934C48.2615 17.7551 48.2656 17.3169 48.2695 16.8787C48.2736 16.4313 48.2789 15.9839 48.2841 15.5366C48.2941 14.6592 48.3027 13.7817 48.3107 12.9043C48.9252 12.9043 49.5397 12.9043 50.1728 12.9043C50.1799 13.843 50.1855 14.7817 50.1889 15.7204C50.1905 16.1564 50.1927 16.5923 50.1962 17.0283C50.1996 17.4499 50.2015 17.8716 50.2023 18.2932C50.2028 18.4532 50.2039 18.6131 50.2056 18.7731C50.2192 20.112 50.1343 21.3937 49.2418 22.482C48.5312 23.1397 47.7414 23.5765 46.759 23.6918C45.3128 23.7751 44.1475 23.6832 42.9371 22.847C42.2661 22.3275 41.8849 21.682 41.6496 20.8854C41.5136 20.1968 41.5493 19.4903 41.5563 18.7919C41.5569 18.6215 41.5573 18.4512 41.5576 18.2808C41.5588 17.8357 41.5618 17.3905 41.5653 16.9453C41.5685 16.4898 41.5699 16.0343 41.5714 15.5787C41.5748 14.6872 41.5802 13.7958 41.5866 12.9043Z" fill="#A22683"/>
<path d="M57.4781 12.8916C57.6627 12.8926 57.8474 12.8936 58.0321 12.8944C58.4811 12.8964 58.9299 12.9004 59.3789 12.9042C59.3789 13.5364 59.3789 14.1685 59.3789 14.8198C59.0997 14.8212 58.8204 14.8226 58.5327 14.8241C58.2592 14.8272 57.9856 14.8311 57.712 14.8351C57.5234 14.8375 57.3348 14.8389 57.1462 14.8395C55.5364 14.8321 55.5364 14.8321 54.146 15.5593C53.6699 16.0445 53.5407 16.7097 53.3789 17.3402C55.3589 17.3402 57.3389 17.3402 59.3789 17.3402C59.3789 17.9723 59.3789 18.6044 59.3789 19.2557C57.3989 19.2557 55.4189 19.2557 53.3789 19.2557C53.3789 20.7196 53.3789 22.1835 53.3789 23.6917C52.7986 23.6917 52.2182 23.6917 51.6203 23.6917C51.6109 22.7679 51.6033 21.8441 51.5989 20.9203C51.5967 20.4912 51.5938 20.0621 51.5891 19.633C51.5845 19.2179 51.5821 18.8029 51.581 18.3877C51.5803 18.2304 51.5788 18.0731 51.5766 17.9157C51.5585 16.6019 51.7125 15.4163 52.5525 14.3381C53.2544 13.5735 54.075 13.1413 55.1031 12.9458C55.8895 12.851 56.687 12.8841 57.4781 12.8916Z" fill="#A12482"/>
<path d="M66.7498 12.8856C66.9584 12.8871 67.1671 12.8885 67.3757 12.8897C67.8826 12.8928 68.3894 12.8987 68.8963 12.9045C68.8963 13.5366 68.8963 14.1687 68.8963 14.82C68.6913 14.8222 68.6913 14.8222 68.4821 14.8245C67.9723 14.8303 67.4626 14.8381 66.9529 14.8465C66.7328 14.8498 66.5126 14.8526 66.2925 14.8549C65.975 14.8583 65.6577 14.8636 65.3403 14.8692C65.2427 14.8699 65.1452 14.8705 65.0447 14.8712C64.433 14.8843 63.9708 14.9718 63.4136 15.2233C62.8837 15.6927 62.6665 16.2702 62.4825 16.9372C62.4325 17.3635 62.4336 17.7815 62.4437 18.21C62.4439 18.3714 62.4439 18.3714 62.4441 18.5361C62.4554 19.5324 62.5613 20.3726 63.2067 21.1715C63.5814 21.5189 63.8573 21.6562 64.3681 21.6916C64.4517 21.6931 64.5354 21.6947 64.6215 21.6963C64.7167 21.6983 64.812 21.7003 64.9101 21.7024C65.0121 21.7041 65.114 21.7058 65.2191 21.7075C65.3766 21.7106 65.3766 21.7106 65.5374 21.7139C65.8725 21.7204 66.2077 21.7264 66.5429 21.7323C66.7702 21.7367 66.9976 21.7411 67.225 21.7455C67.7821 21.7563 68.3392 21.7665 68.8963 21.7764C68.8963 22.4085 68.8963 23.0407 68.8963 23.692C68.2376 23.6995 67.5788 23.7049 66.92 23.7086C66.6963 23.7101 66.4726 23.7121 66.2488 23.7148C65.9258 23.7185 65.6028 23.7202 65.2797 23.7215C65.1315 23.7238 65.1315 23.7238 64.9804 23.7262C63.8823 23.7265 62.9528 23.4213 62.0687 22.7846C61.1607 22.015 60.7912 20.8926 60.5695 19.7691C60.3342 18.1575 60.3877 16.3163 61.2153 14.8641C61.8678 13.9263 62.603 13.3678 63.711 13.0463C64.7059 12.809 65.7329 12.8726 66.7498 12.8856Z" fill="#A22583"/>
<path d="M4.34458 16.332C4.37872 16.332 4.41285 16.332 4.44803 16.332C4.46323 16.4222 4.47843 16.5124 4.49409 16.6053C4.71791 17.7812 5.09966 18.6077 6.05228 19.3814C6.9619 20.0052 7.99498 20.314 9.10118 20.2974C9.67738 20.2356 10.2141 20.0482 10.7584 19.8606C11.8642 19.5014 13.2066 19.793 14.2756 20.1631C15.1546 20.5036 15.9491 20.9592 16.6549 21.5745C16.7311 21.6394 16.8072 21.7042 16.8857 21.7711C17.817 22.6162 18.5526 23.7143 18.9308 24.9015C18.9539 24.9721 18.9769 25.0427 19.0007 25.1154C19.2782 26.1179 19.21 27.0839 18.8791 28.0584C18.5188 29.1368 18.4098 30.2203 18.8338 31.3034C19.3393 32.3108 19.9939 32.9984 21.0357 33.4832C21.366 33.5899 21.6678 33.6143 22.0148 33.6348C22.1951 33.6461 22.1951 33.6461 22.3789 33.6577C22.5155 33.6651 22.5155 33.6651 22.6549 33.6726C22.4426 33.8992 22.3439 33.9753 22.0342 34.0759C20.9517 34.1719 20.2364 34.0328 19.349 33.4356C18.5393 32.8201 18.0256 31.9158 17.7929 30.9506C17.6551 30.0084 17.8633 29.2696 18.1908 28.3988C18.4474 27.692 18.4921 27.0609 18.4135 26.313C18.4035 26.2169 18.3935 26.1209 18.3832 26.0219C18.1682 24.5675 17.3467 23.1397 16.2399 22.1405C14.883 21.0675 13.2633 20.4107 11.5084 20.308C10.9558 20.3186 10.5157 20.4743 10.0084 20.6672C9.03015 21.035 8.14421 21.1465 7.10859 20.8834C6.08956 20.5084 5.13028 19.9073 4.56683 18.982C4.22083 18.3111 4.05079 17.6906 4.13768 16.9369C4.23466 16.5778 4.23466 16.5778 4.34458 16.332Z" fill="#B2ADB3"/>
<path d="M25.1569 19.4768C25.7671 19.8439 26.2861 20.2756 26.7927 20.7685C26.8574 20.8303 26.9221 20.8922 26.9887 20.9559C27.9858 21.9825 28.7012 23.3804 28.8006 24.7921C28.8405 25.7307 28.8342 26.5374 28.241 27.3216C28.1791 27.411 28.1172 27.5004 28.0535 27.5926C27.8473 27.805 27.635 27.9891 27.4069 28.1786C26.9662 28.5466 26.704 28.8799 26.5858 29.4388C26.4959 30.3925 26.6407 31.2531 27.1362 32.0888C27.6548 32.8055 28.3105 33.3983 29.172 33.6731C29.4122 33.714 29.6536 33.7498 29.8961 33.7739C29.4186 34.0419 28.9861 34.024 28.4479 33.9756C27.7115 33.8416 27.185 33.3935 26.6893 32.8666C26.0342 32.0158 25.6791 31.0765 25.7251 30.0078C25.8275 29.1838 26.2425 28.745 26.838 28.1912C27.4736 27.5923 27.952 27.0857 28.061 26.194C28.2007 24.5191 27.7971 23.1553 26.8109 21.7786C26.7366 21.6782 26.6623 21.5777 26.5858 21.4742C26.5361 21.4039 26.4863 21.3336 26.4351 21.2611C25.7511 20.3851 24.4508 19.6187 23.3873 19.3018C22.4138 19.0955 21.3201 19.1517 20.3789 19.4578C20.6785 19.0896 20.989 18.9373 21.4401 18.8069C22.7722 18.5498 23.9854 18.8498 25.1569 19.4768Z" fill="#B2ACB3"/>
<path d="M4.34448 9.07324C4.51584 9.32373 4.62766 9.53605 4.74535 9.81047C5.17662 10.76 5.78249 11.3992 6.73026 11.8772C7.58165 12.2594 8.37114 12.4214 9.31 12.2994C9.99747 12.0435 10.4613 11.592 10.9571 11.0794C11.5223 10.5762 12.2394 10.3075 12.9945 10.259C14.8469 10.2113 16.4574 10.7659 17.9136 11.8788C19.2883 12.9863 20.2504 14.4052 20.5859 16.1305C20.6903 16.9222 20.506 17.6248 20.1721 18.3484C20.0147 18.5814 19.8582 18.7551 19.6548 18.9534C19.6548 18.6509 19.6548 18.6509 19.8064 18.2858C20.1409 17.4427 20.1124 16.3746 19.8585 15.5106C19.5486 14.6341 19.0276 13.9061 18.4135 13.2068C18.3294 13.1079 18.3294 13.1079 18.2437 13.0071C17.2394 11.9269 15.6623 11.1837 14.2101 10.9167C13.0003 10.7747 12.034 10.9365 10.9975 11.5685C10.6709 11.7915 10.4 12.0376 10.1247 12.3183C9.6557 12.7842 9.31531 12.9736 8.65294 13.0398C7.53104 13.0843 6.6709 12.8396 5.75397 12.2112C5.10063 11.692 4.56516 11.0914 4.34448 10.2831C4.31337 9.87707 4.3191 9.47937 4.34448 9.07324Z" fill="#B2ACB2"/>
<path d="M10.2414 23.2891C10.2414 23.5915 10.2414 23.5915 10.1408 23.8711C9.8877 24.6459 9.94392 25.4809 10.235 26.238C10.7213 27.2365 11.4916 27.9659 12.5173 28.4308C13.5261 28.815 14.5145 28.6421 15.5173 28.3299C15.108 28.9017 14.6576 29.2387 13.9656 29.4389C12.8376 29.5559 11.8773 29.4505 10.9009 28.8655C10.0014 28.2404 9.44258 27.4419 9.10351 26.4144C8.97439 25.5844 9.07772 24.8228 9.51731 24.0956C9.74159 23.8087 9.98058 23.5447 10.2414 23.2891Z" fill="#B3B3B5"/>
<path d="M12.7237 13.3076C12.792 13.3409 12.8602 13.3742 12.9306 13.4084C12.8975 13.4646 12.8644 13.5207 12.8304 13.5786C12.6295 14.0175 12.6552 14.4514 12.7237 14.9207C13.1028 16.0007 13.8013 16.75 14.787 17.3395C15.3997 17.6324 15.921 17.6689 16.5901 17.6554C16.6761 17.6545 16.7621 17.6536 16.8507 17.6526C17.0613 17.6503 17.2718 17.6466 17.4823 17.6428C17.0685 18.0632 16.7782 18.2118 16.1755 18.2772C15.22 18.3222 14.4526 18.0905 13.679 17.54C12.9268 16.9134 12.2813 16.1961 12.103 15.2231C12.0236 14.5566 12.1373 14.0721 12.5168 13.5093C12.5851 13.4427 12.6533 13.3762 12.7237 13.3076Z" fill="#B4B4B6"/>
<path d="M21.517 21.4736C21.517 21.7761 21.517 21.7761 21.4136 22.0785C21.3028 22.9634 21.5032 23.716 21.9308 24.4982C22.4079 25.1479 22.9586 25.648 23.6894 26.0104C23.7705 26.0541 23.8516 26.0978 23.9351 26.1427C24.4953 26.2857 25.0994 26.2675 25.6549 26.1112C25.3643 26.426 25.1356 26.5838 24.7239 26.7161C23.9787 26.8137 23.3502 26.7457 22.6945 26.381C21.8096 25.7744 21.2524 25.0304 20.864 24.0571C20.7153 23.2928 20.6929 22.6357 21.0858 21.9431C21.214 21.766 21.3553 21.6218 21.517 21.4736Z" fill="#B4B3B5"/>
<path d="M21.5176 5.24219C21.5517 5.24219 21.5859 5.24219 21.621 5.24219C21.6213 5.30444 21.6216 5.36669 21.6218 5.43083C21.656 6.15897 21.853 6.61118 22.3452 7.15772C22.8355 7.64276 23.3613 8.09073 23.9062 8.51639C24.9245 9.37694 25.6238 10.6064 25.8624 11.8961C25.9288 12.4839 25.837 12.9841 25.5521 13.5092C25.3258 13.7613 25.3258 13.7613 25.1383 13.9125C25.1041 13.8459 25.07 13.7794 25.0348 13.7109C25.0839 13.6298 25.133 13.5487 25.1835 13.4651C25.4501 12.8727 25.4202 12.3174 25.2736 11.6917C24.7892 10.1569 23.7773 9.10732 22.5783 8.05602C22.0804 7.61728 21.5726 7.16804 21.3107 6.55281C21.2832 6.32913 21.2832 6.32913 21.2848 6.09914C21.2843 6.02324 21.2838 5.94734 21.2832 5.86915C21.3137 5.62073 21.3845 5.45505 21.5176 5.24219Z" fill="#B3ABB2"/>
<path d="M28.2632 13.9032C29.7693 14.4911 30.8502 15.4929 31.8131 16.7426C32.0164 17.0015 32.2346 17.2233 32.4831 17.4413C32.5347 17.487 32.5863 17.5328 32.6395 17.5799C33.1397 17.9798 33.6057 18.0324 34.2417 18.0462C34.2417 18.0794 34.2417 18.1127 34.2417 18.147C33.0839 18.3727 33.0839 18.3727 32.57 18.1517C31.6873 17.6237 31.0424 16.8142 30.4271 16.0172C29.6212 15.0292 28.5726 14.3949 27.3107 14.1143C26.8921 14.0802 26.4878 14.0807 26.0693 14.1143C26.599 13.5981 27.5953 13.7193 28.2632 13.9032Z" fill="#B3ACB3"/>
<path d="M8.89662 3.83105C9.02971 4.09045 8.99595 4.26047 8.98068 4.54938C8.97658 5.31454 9.25058 5.77068 9.73068 6.35779C10.4013 7.07189 11.2599 7.54279 12.2328 7.72513C12.7087 7.7715 13.1775 7.77137 13.6552 7.76293C13.4862 7.93517 13.3584 8.05879 13.138 8.1662C12.0242 8.27087 11.1612 8.09587 10.2128 7.51877C10.0048 7.37404 9.81265 7.2216 9.62076 7.05721C9.55582 7.00328 9.49088 6.94935 9.42397 6.89378C8.87393 6.40306 8.54313 5.88517 8.44363 5.15743C8.42356 4.68794 8.42938 4.41816 8.68973 4.01379C8.758 3.95348 8.82628 3.89318 8.89662 3.83105Z" fill="#B5B5B7"/>
<path d="M31.345 25.1035C31.3792 25.1701 31.4133 25.2366 31.4485 25.3052C31.4165 25.3592 31.3845 25.4133 31.3515 25.469C31.0677 26.0873 31.2707 26.7936 31.4449 27.4196C31.7917 28.4081 32.4118 29.0646 33.2976 29.6277C33.7443 29.7844 34.1837 29.8156 34.6554 29.8419C34.4863 30.0142 34.3586 30.1378 34.1382 30.2452C33.31 30.3148 32.829 30.078 32.1597 29.6214C31.3638 28.9256 30.8471 27.8583 30.6779 26.8403C30.6509 26.2504 30.801 25.7944 31.1382 25.3052C31.2064 25.2386 31.2747 25.1721 31.345 25.1035Z" fill="#B7B6B8"/>
<path d="M19.4482 8.77148C19.4823 8.83802 19.5165 8.90456 19.5516 8.97312C19.5175 9.03966 19.4834 9.1062 19.4482 9.17475C19.3434 9.96252 19.643 10.5302 20.0689 11.1911C20.6033 11.8832 21.3059 12.3113 22.1379 12.6025C22.519 12.6707 22.8885 12.7019 23.2758 12.7034C23.0689 12.905 23.0689 12.905 22.7909 12.9424C21.8189 12.9614 21.2113 12.7824 20.437 12.2162C19.924 11.7986 19.5482 11.3659 19.2413 10.7878C19.1741 10.6662 19.1741 10.6662 19.1055 10.5421C18.9975 10.1497 18.9721 9.77893 19.0344 9.37639C19.1487 9.13917 19.2758 8.97622 19.4482 8.77148Z" fill="#B7B7B8"/>
<path d="M26.8961 15.8281C26.8961 16.1306 26.8961 16.1306 26.7927 16.3322C26.6833 17.1431 26.9257 17.8083 27.3624 18.4919C27.8854 19.1984 28.5368 19.669 29.3789 19.9616C29.6195 20.0001 29.8608 20.0347 30.103 20.0625C29.7125 20.3162 29.5331 20.3012 29.0685 20.2641C28.1872 20.0529 27.5743 19.4969 27.0101 18.818C26.5437 18.1706 26.3292 17.5446 26.3445 16.7508C26.4056 16.3649 26.6143 16.1028 26.8961 15.8281Z" fill="#B5B5B6"/>
<path d="M14.9997 3.32715C15.0338 3.32715 15.068 3.32715 15.1031 3.32715C15.1073 3.38238 15.1114 3.43761 15.1157 3.49452C15.2117 4.2048 15.5103 4.71653 15.9022 5.30768C16.413 6.08244 16.5134 6.74692 16.448 7.6623C16.351 8.04036 16.351 8.04036 16.2411 8.2672C16.2069 8.2672 16.1728 8.2672 16.1376 8.2672C16.1412 8.1904 16.1448 8.11359 16.1485 8.03446C16.1807 6.83734 15.8413 6.12168 15.1799 5.13359C14.8859 4.65368 14.8758 4.28744 14.8962 3.73042C14.9415 3.48468 14.9415 3.48468 14.9997 3.32715Z" fill="#B4AAB3"/>
<path d="M31.2412 22.886C32.5911 22.8118 33.3938 23.1117 34.5055 23.8351C34.7509 23.9969 34.7509 23.9969 34.9985 24.1108C35.0845 24.1533 35.0845 24.1533 35.1722 24.1966C35.1722 24.2299 35.1722 24.2632 35.1722 24.2974C34.2795 24.392 33.629 23.9292 32.9028 23.472C32.3724 23.1523 31.8555 23.0528 31.2412 22.9868C31.2412 22.9535 31.2412 22.9203 31.2412 22.886Z" fill="#B4AFB4"/>
<path d="M32.7929 19.7598C33.0192 19.7913 33.0192 19.7913 33.2067 19.8606C33.1082 20.0526 33.0096 20.2445 32.9101 20.436C32.8354 20.5834 32.7634 20.7322 32.6951 20.8825C32.4619 21.384 32.2303 21.6681 31.7585 21.9777C31.461 22.0597 31.461 22.0597 31.2412 22.0786C31.2976 22.0123 31.2976 22.0123 31.3552 21.9447C31.7673 21.438 32.059 20.9138 32.3383 20.328C32.5632 19.9136 32.5632 19.9136 32.7929 19.7598Z" fill="#B4ACB4"/>
<path d="M26.9999 9.1748C27.1217 9.41216 27.1015 9.52415 27.084 9.78601C27.0803 10.5391 27.403 11.0865 27.8792 11.6637C28.361 12.1706 28.941 12.4362 29.5861 12.7034C29.2286 12.8196 29.1716 12.8039 28.7909 12.6593C27.9519 12.2117 27.3306 11.6105 26.8993 10.7769C26.7306 10.3142 26.7021 9.85949 26.793 9.37644C26.8613 9.3099 26.9296 9.24336 26.9999 9.1748Z" fill="#BBBABC"/>
<path d="M19.4479 6.35156C19.482 6.4181 19.5161 6.48464 19.5513 6.5532C19.3746 6.8074 19.202 6.93454 18.9048 7.03562C18.7257 7.0843 18.5464 7.13206 18.3669 7.17897C17.9981 7.29071 17.7047 7.46202 17.3789 7.66219C17.4371 7.43535 17.4371 7.43535 17.5858 7.1581C18.1538 6.76943 18.7943 6.5681 19.4479 6.35156Z" fill="#B3AAB3"/>
<path d="M21.5168 18.8525C21.5168 18.9191 21.5168 18.9856 21.5168 19.0542C21.8924 19.0542 22.2679 19.0542 22.6548 19.0542C22.6548 19.0874 22.6548 19.1207 22.6548 19.155C22.5512 19.1599 22.4475 19.1649 22.3408 19.17C22.2019 19.1775 22.063 19.1851 21.9242 19.1928C21.7885 19.1998 21.6529 19.2068 21.5132 19.2141C21.105 19.2556 20.7678 19.3362 20.3789 19.4574C20.7017 19.1079 21.0146 18.8525 21.5168 18.8525Z" fill="#C3B6C1"/>
<path d="M31.2412 22.8859C31.4567 22.8804 31.6722 22.8765 31.8878 22.8733C32.0678 22.8698 32.0678 22.8698 32.2514 22.8662C32.5682 22.8849 32.7352 22.9254 32.9998 23.0875C32.388 23.2487 31.8461 23.1136 31.2412 22.9867C31.2412 22.9534 31.2412 22.9202 31.2412 22.8859Z" fill="#B3A4B1"/>
<path d="M32.8964 17.9453C33.2007 17.9378 33.2007 17.9378 33.5753 17.9768C33.6992 17.9889 33.8231 18.0009 33.9507 18.0134C34.0466 18.0242 34.1425 18.035 34.2412 18.0461C34.2412 18.0794 34.2412 18.1126 34.2412 18.1469C33.7485 18.2429 33.293 18.2561 32.793 18.2477C32.8271 18.1479 32.8612 18.0481 32.8964 17.9453Z" fill="#BB9DB5"/>
<path d="M11.1724 11.0898C11.2749 11.1564 11.3773 11.2229 11.4828 11.2915C10.9009 11.6947 10.9009 11.6947 10.5518 11.6947C10.655 11.4432 10.7298 11.3114 10.9591 11.1529C11.0295 11.1321 11.0999 11.1113 11.1724 11.0898Z" fill="#B6B4B7"/>
<path d="M19.4486 6.35156C19.4828 6.4181 19.5169 6.48464 19.5521 6.5532C19.5179 6.61974 19.4838 6.68628 19.4486 6.75483C19.1512 6.83045 19.1512 6.83045 18.8279 6.85565C18.7255 6.78911 18.6231 6.72257 18.5176 6.65401C18.8248 6.55421 19.1321 6.4544 19.4486 6.35156Z" fill="#B3A5B1"/>
<path d="M21.5169 5.24219C21.551 5.24219 21.5852 5.24219 21.6203 5.24219C21.6203 5.50835 21.6203 5.7745 21.6203 6.04873C21.5521 6.04873 21.4838 6.04873 21.4135 6.04873C21.3793 6.11527 21.3452 6.18181 21.31 6.25036C21.2916 5.85629 21.2916 5.57807 21.5169 5.24219Z" fill="#B493AF"/>
<path d="M34.3447 23.9941C34.5871 24.0199 34.8287 24.0539 35.0689 24.095C35.103 24.1615 35.1371 24.228 35.1723 24.2966C34.8167 24.3155 34.8167 24.3155 34.4482 24.2966C34.414 24.1968 34.3799 24.097 34.3447 23.9941Z" fill="#C0BAC0"/>
<path d="M15.0002 3.32715C15.0344 3.32715 15.0685 3.32715 15.1037 3.32715C15.1378 3.62658 15.172 3.926 15.2071 4.23451C15.1389 4.23451 15.0706 4.23451 15.0002 4.23451C14.9661 4.30104 14.932 4.36758 14.8968 4.43614C14.8813 3.64923 14.8813 3.64923 15.0002 3.32715Z" fill="#C1AFBE"/>
<path d="M18.5175 6.75523C18.886 6.73003 18.886 6.73003 19.2416 6.75523C19.051 6.9801 18.949 7.05328 18.6533 7.127C18.5349 7.14259 18.5349 7.14259 18.4141 7.1585C18.4205 6.95687 18.4205 6.95687 18.5175 6.75523Z" fill="#BDBDBE"/>
</g>
<defs>
<clipPath id="clip0_2509_40892">
<rect width="72" height="36" fill="white"/>
</clipPath>
</defs>
</svg>
